{"glyphs":{"0":{"ha":679,"x_min":0,"x_max":0,"o":"m 567 264 b 617 603 607 371 625 489 b 386 900 607 747 543 881 b 383 904 385 900 385 903 b 333 924 371 919 354 926 b 151 771 260 918 186 828 b 67 546 110 701 81 625 b 93 260 53 451 60 350 b 324 19 125 169 213 19 b 567 264 446 19 531 164 z m 156 313 b 143 438 146 353 143 396 b 215 715 142 533 168 632 b 325 838 243 763 279 808 b 342 846 328 838 340 846 b 361 818 344 843 358 822 b 375 797 365 811 368 801 b 388 794 379 794 383 794 b 411 832 404 794 418 813 l 411 833 b 542 681 485 814 525 751 b 557 531 554 632 558 581 b 381 97 553 397 503 176 b 328 81 364 88 346 81 b 156 313 239 81 171 242 z "},"1":{"ha":383,"x_min":0,"x_max":0,"o":"m 313 68 b 285 279 296 101 286 240 b 279 864 285 356 286 788 b 267 931 278 886 276 910 b 231 954 260 943 244 954 b 138 893 200 954 157 917 b 38 786 125 878 49 804 b 40 757 33 776 33 767 b 61 746 46 749 54 746 b 88 764 72 746 83 751 b 208 879 103 779 192 865 b 201 610 206 789 201 700 b 225 167 203 463 197 311 b 272 33 231 138 250 53 b 289 28 278 29 283 28 b 313 68 307 28 324 47 z "},"2":{"ha":615,"x_min":0,"x_max":0,"o":"m 154 51 b 358 92 219 74 289 92 b 500 57 407 92 457 81 b 513 53 504 54 508 53 b 540 85 529 53 543 68 b 350 154 529 142 394 154 b 188 128 294 153 240 143 b 542 685 314 279 485 494 b 561 811 554 726 564 769 b 399 950 561 910 486 950 b 90 817 290 950 169 886 b 44 732 65 796 28 761 b 69 718 50 722 60 718 b 99 750 86 718 103 731 b 329 871 161 804 250 851 b 418 876 357 878 389 881 b 471 854 436 872 457 867 b 481 761 488 838 485 785 b 121 147 446 558 244 304 b 82 89 114 139 86 100 b 107 43 75 69 86 47 b 114 43 110 43 113 43 b 154 51 128 43 142 47 z "},"3":{"ha":650,"x_min":0,"x_max":0,"o":"m 540 215 b 503 376 549 269 532 331 b 274 496 453 457 363 489 b 579 790 379 567 522 675 b 592 901 596 824 604 867 b 556 953 585 921 571 939 b 436 990 522 981 478 990 b 122 860 326 990 193 946 b 113 849 121 858 114 850 b 143 803 100 828 119 803 b 169 828 157 803 168 814 b 419 908 236 881 335 908 b 511 875 456 908 500 901 b 508 831 518 861 514 844 b 76 474 449 689 222 538 b 90 386 31 451 44 386 b 129 397 104 386 117 392 b 254 419 168 413 211 419 b 451 321 331 419 415 396 b 457 201 468 285 475 238 b 258 119 425 131 326 119 b 119 139 211 119 164 126 b 96 140 113 140 103 143 b 93 90 74 132 71 101 b 285 49 163 58 210 49 b 540 215 399 49 519 89 z "},"4":{"ha":753,"x_min":0,"x_max":0,"o":"m 547 -8 b 539 140 539 15 539 117 b 540 306 540 196 539 251 b 729 436 579 324 722 389 b 700 471 732 456 717 471 b 686 467 696 471 690 469 b 672 456 681 464 678 458 b 542 389 631 432 588 408 b 550 590 544 456 546 522 b 556 690 551 624 556 657 b 546 738 568 706 560 725 b 528 744 540 742 535 744 b 500 726 517 744 507 738 b 447 356 475 685 450 407 b 283 332 394 342 339 332 b 153 357 251 332 178 336 b 138 389 143 365 139 378 b 143 450 135 410 139 431 b 311 818 171 569 250 714 b 375 936 333 857 354 896 b 347 983 389 961 369 983 b 321 967 338 983 328 979 b 226 826 310 949 238 846 b 88 574 174 747 124 663 b 49 378 63 511 43 444 b 251 246 57 268 161 246 b 443 274 317 246 381 256 b 443 111 440 219 439 165 b 500 -46 447 58 456 -10 b 517 -51 506 -50 511 -51 b 547 -8 538 -51 554 -31 z "},"5":{"ha":649,"x_min":0,"x_max":0,"o":"m 521 167 b 592 361 567 221 593 290 b 338 642 592 511 493 642 b 215 624 297 642 254 635 b 142 600 190 615 167 607 b 171 722 150 640 160 682 b 188 808 179 750 182 781 b 206 874 190 822 197 864 b 250 869 211 874 244 869 b 354 863 285 865 319 863 b 525 888 413 863 468 874 b 563 899 538 890 553 890 b 546 946 581 915 569 942 b 540 946 544 946 543 946 b 479 942 525 946 488 942 b 367 936 442 939 404 936 b 254 943 329 936 292 939 b 189 949 233 946 211 949 b 131 911 165 949 142 932 b 104 839 118 889 111 864 b 60 582 94 799 56 624 l 60 578 b 115 518 53 546 82 518 b 225 550 133 518 208 546 b 336 568 261 560 299 568 b 461 514 392 568 424 556 b 521 361 499 474 519 415 b 478 225 522 314 507 263 b 306 153 435 169 374 153 b 131 228 226 153 189 179 b 113 235 125 233 119 235 b 92 189 93 235 75 210 l 122 158 b 321 81 178 106 244 81 b 521 167 393 81 474 108 z "},"6":{"ha":763,"x_min":0,"x_max":0,"o":"m 713 299 b 682 447 715 349 707 403 b 408 572 625 544 514 572 b 201 492 329 572 258 551 b 165 443 188 478 174 461 b 253 781 158 560 186 686 b 440 907 290 835 368 907 b 501 881 460 907 490 894 b 510 849 507 871 506 860 b 533 832 514 838 524 832 b 558 849 544 832 554 838 b 554 886 563 861 556 874 b 419 992 549 947 478 992 b 247 922 361 992 290 960 b 67 581 150 839 83 708 b 72 364 57 510 57 435 b 364 11 108 210 203 57 b 446 -1 390 3 418 -1 b 713 299 617 -1 703 147 z m 175 374 b 213 400 194 369 213 382 b 404 499 261 465 324 499 b 581 450 464 499 532 486 b 615 178 657 396 657 263 b 458 71 586 115 528 71 b 175 374 301 71 203 238 z "},"7":{"ha":597,"x_min":0,"x_max":0,"o":"m 311 15 b 318 83 331 38 342 69 b 383 399 328 190 351 296 b 493 413 421 399 460 400 b 483 469 524 425 517 469 b 465 467 481 469 468 467 b 406 464 457 465 414 464 b 483 650 428 528 454 589 b 547 789 504 696 531 740 b 554 843 550 799 556 833 b 494 901 549 875 525 894 b 142 914 444 914 193 911 b 42 925 108 915 75 918 b 7 931 31 928 19 932 b -4 885 -14 926 -21 900 b 283 838 42 846 224 840 b 475 829 313 838 446 838 b 421 722 463 792 439 758 b 311 461 378 639 340 551 b 250 460 292 461 271 460 b 233 465 244 464 239 465 b 204 443 221 465 208 457 b 226 407 197 426 210 410 b 293 401 236 404 283 403 b 243 60 261 292 239 175 b 264 13 243 43 250 24 b 286 4 271 7 278 4 b 311 15 296 4 304 8 z "},"8":{"ha":617,"x_min":0,"x_max":0,"o":"m 496 276 b 482 404 499 319 493 364 b 392 538 468 457 433 504 b 193 642 333 585 261 610 b 133 685 178 650 139 668 b 151 726 131 696 146 718 b 386 869 200 794 299 869 b 467 836 415 869 447 858 b 488 746 486 813 492 776 b 431 600 479 694 454 646 b 413 546 422 583 413 565 b 442 517 413 529 426 517 b 457 521 447 517 451 518 b 497 579 468 528 492 567 b 560 751 529 632 556 690 b 521 882 564 797 550 847 b 388 939 486 922 440 939 b 125 801 285 939 192 875 b 71 722 103 779 82 753 b 76 646 63 699 64 667 b 131 597 89 625 110 608 b 249 543 168 576 208 560 b 75 321 174 496 107 401 b 68 182 58 278 54 226 b 289 49 96 90 200 49 b 496 276 429 49 485 153 z m 146 197 b 144 281 135 222 136 254 b 292 489 171 358 229 436 b 325 501 304 485 319 489 b 421 382 372 472 406 438 b 428 244 433 338 436 289 b 294 115 418 167 375 115 b 146 197 235 115 167 146 z "},"9":{"ha":761,"x_min":0,"x_max":0,"o":"m 514 67 b 696 408 613 150 678 281 b 689 625 706 481 706 554 b 399 978 653 779 560 931 b 317 990 371 986 343 990 b 50 692 146 990 61 843 b 81 542 46 640 54 586 b 353 417 131 447 253 417 b 560 497 433 417 503 438 b 596 546 575 511 588 528 b 508 208 604 429 575 303 b 392 103 479 165 439 126 b 306 83 365 90 335 78 b 261 110 294 86 267 100 b 253 140 254 118 256 131 b 229 157 249 151 239 157 b 204 140 218 157 208 151 b 207 103 200 128 206 115 b 342 -3 215 43 283 -3 b 514 67 401 -3 471 29 z m 181 539 b 146 811 104 593 106 726 b 218 893 161 844 186 875 b 294 918 240 907 268 918 b 586 615 461 918 557 761 b 549 589 568 621 550 608 b 515 553 544 583 521 557 b 360 492 472 508 419 492 b 181 539 301 492 228 504 z "},"\u0000":{"ha":0,"x_min":0,"x_max":0,"o":""},"\r":{"ha":0,"x_min":0,"x_max":0,"o":""}," ":{"ha":417,"x_min":0,"x_max":0,"o":""},"\n":{"ha":0,"x_min":0,"x_max":0,"o":""},"!":{"ha":268,"x_min":0,"x_max":0,"o":"m 175 356 b 168 363 172 357 169 360 b 163 394 164 368 163 388 b 171 601 163 464 168 533 b 179 972 172 649 181 926 b 179 1013 190 983 190 1001 b 146 1029 169 1019 158 1029 b 117 1015 136 1029 125 1022 b 78 799 93 992 79 832 b 75 483 69 694 65 589 b 139 313 79 432 88 342 b 153 308 144 310 149 308 b 175 356 175 308 192 335 z m 207 -29 b 201 -7 208 -21 204 -14 b 196 38 199 0 197 32 b 160 190 192 68 179 168 b 135 204 153 200 143 204 b 101 175 119 204 106 193 b 103 99 96 150 100 124 b 132 -22 107 57 110 13 b 154 -50 135 -28 150 -47 b 175 -60 161 -57 168 -60 b 207 -29 192 -60 206 -47 z "},"\"":{"ha":308,"x_min":0,"x_max":0,"o":"m 100 890 b 100 903 99 893 100 901 b 93 971 99 925 94 947 b 82 993 92 979 86 985 b 60 1006 76 1001 68 1006 b 33 983 47 1006 36 997 b 29 972 33 979 31 976 b 32 900 28 961 31 911 b 51 857 33 885 40 868 b 71 850 57 851 64 850 b 100 890 89 850 106 868 z m 268 865 b 265 878 267 868 265 874 b 271 960 263 896 260 946 b 251 1001 285 976 274 1001 b 222 986 240 1001 231 993 b 203 875 200 967 200 903 b 243 822 206 851 219 822 b 268 865 265 822 279 846 z "},"‟":{"ha":308,"x_min":0,"x_max":0,"o":"m 100 890 b 100 903 99 893 100 901 b 93 971 99 925 94 947 b 82 993 92 979 86 985 b 60 1006 76 1001 68 1006 b 33 983 47 1006 36 997 b 29 972 33 979 31 976 b 32 900 28 961 31 911 b 51 857 33 885 40 868 b 71 850 57 851 64 850 b 100 890 89 850 106 868 z m 268 865 b 265 878 267 868 265 874 b 271 960 263 896 260 946 b 251 1001 285 976 274 1001 b 222 986 240 1001 231 993 b 203 875 200 967 200 903 b 243 822 206 851 219 822 b 268 865 265 822 279 846 z "},"#":{"ha":710,"x_min":0,"x_max":0,"o":"m 471 92 b 472 113 472 99 472 106 b 489 400 478 208 479 304 b 650 424 514 403 628 415 b 646 478 678 433 674 474 b 642 478 644 478 643 478 b 596 475 629 478 601 475 b 497 468 583 474 508 469 b 514 581 501 506 507 543 b 608 592 526 582 596 589 b 604 646 642 597 638 644 b 525 644 593 646 535 644 b 551 786 533 692 543 739 b 565 801 558 789 564 794 b 533 858 575 829 556 858 b 513 847 526 858 519 856 b 454 642 486 818 461 679 b 242 631 383 638 313 633 b 289 874 257 711 274 793 b 304 975 292 890 307 958 b 278 997 301 990 290 997 b 250 976 267 997 254 990 b 165 626 236 931 175 674 b 132 626 158 626 138 624 b 92 628 125 631 100 629 b 85 578 65 624 63 590 b 154 569 96 571 142 569 b 131 428 144 522 138 475 b 81 419 122 426 92 419 b 74 419 76 419 75 419 b 60 372 47 419 36 385 b 81 369 64 369 72 369 b 122 372 96 369 114 371 b 113 144 114 297 106 221 b 144 81 114 121 124 93 b 168 75 151 76 160 75 b 189 79 175 75 182 76 b 176 132 219 90 208 135 b 201 379 176 215 190 297 b 417 394 228 381 390 392 b 415 107 408 299 406 203 b 419 92 417 106 418 94 b 446 74 424 81 435 74 b 471 92 456 74 467 81 z m 231 568 b 440 575 301 568 371 571 b 424 463 435 538 428 500 b 210 440 353 457 281 450 b 231 568 213 456 228 553 z "},"$":{"ha":718,"x_min":0,"x_max":0,"o":"m 418 -122 b 417 25 418 -72 418 -24 b 649 125 481 36 610 67 b 660 186 661 143 665 165 b 603 268 651 218 628 246 b 407 404 543 321 475 363 b 397 875 406 463 397 817 b 496 890 428 885 463 890 b 556 878 517 890 538 888 b 600 814 579 867 603 840 b 553 736 599 796 565 750 b 542 739 550 735 544 739 b 514 700 519 743 503 719 b 554 683 521 689 540 683 b 604 714 575 683 592 699 b 660 803 628 740 651 769 b 567 946 674 863 624 926 b 482 960 540 956 511 960 b 396 949 453 960 424 956 b 399 996 396 964 393 981 b 396 1035 401 1004 400 1026 b 371 1050 390 1044 381 1050 b 351 1040 364 1050 357 1047 b 338 932 336 1024 338 954 b 57 668 231 893 89 783 b 63 576 50 639 51 606 b 140 478 79 539 108 506 b 340 343 201 426 271 385 b 350 88 343 257 346 172 b 296 83 332 85 314 83 b 150 147 239 83 183 99 b 139 174 143 156 142 164 b 115 190 135 185 125 190 b 89 160 101 190 86 179 b 213 35 97 103 164 54 b 354 18 257 18 307 15 b 364 -128 356 -1 361 -108 b 390 -150 367 -143 379 -150 b 418 -122 406 -150 419 -140 z m 183 557 b 139 622 164 575 143 597 b 157 694 133 647 144 674 b 336 853 197 763 264 819 b 338 447 335 718 336 583 b 183 557 285 481 231 515 z m 410 301 b 586 172 444 281 567 208 b 569 150 590 163 579 156 b 414 99 522 124 468 111 b 410 301 413 167 411 233 z "},"%":{"ha":842,"x_min":0,"x_max":0,"o":"m 339 660 b 321 757 344 693 335 728 b 183 899 303 792 231 899 b 161 886 175 899 167 894 b 136 908 160 899 149 908 b 79 853 114 908 88 871 b 57 632 49 786 38 703 b 192 528 75 565 132 528 b 339 660 264 528 325 590 z m 357 26 b 343 76 381 40 371 76 b 285 68 329 76 303 68 b 267 74 276 68 269 69 b 276 194 250 97 268 167 b 299 256 282 215 290 236 b 467 588 344 371 407 479 b 615 818 513 667 556 749 b 633 842 622 825 629 832 b 651 847 636 844 647 846 b 643 899 678 858 671 899 b 603 883 635 899 610 888 b 569 863 590 881 579 872 b 336 529 474 767 401 647 b 197 217 281 429 225 328 b 194 75 185 171 181 119 b 278 11 210 36 235 11 b 357 26 292 11 343 19 z m 108 701 b 119 800 106 735 110 768 b 140 851 122 810 133 844 b 157 867 146 857 153 861 b 171 847 158 860 164 851 b 272 692 210 825 271 738 b 192 596 275 649 235 600 b 189 596 190 596 190 596 b 108 701 129 596 111 653 z m 788 239 b 796 333 801 268 807 304 b 685 414 781 374 729 414 b 654 396 671 414 658 410 b 625 361 651 389 629 367 b 525 168 582 303 544 238 b 567 88 517 135 533 97 b 599 83 578 85 589 83 b 788 239 678 83 754 163 z m 589 154 b 689 357 589 201 660 321 b 735 318 707 349 725 336 b 697 217 749 290 718 240 b 638 165 681 197 661 178 b 589 154 624 157 606 151 z "},"&":{"ha":735,"x_min":0,"x_max":0,"o":"m 454 176 b 586 63 496 135 538 94 b 618 43 590 58 613 44 b 667 24 625 40 660 25 b 678 74 700 18 710 64 b 649 86 674 76 653 83 b 501 224 593 124 546 174 b 624 442 554 288 593 364 b 647 526 629 457 650 511 b 621 549 644 540 632 549 b 604 543 615 549 610 547 b 585 496 597 536 589 504 b 460 271 554 417 515 336 b 303 472 404 336 349 400 b 482 732 367 556 439 636 b 508 844 497 767 510 807 b 403 956 506 908 468 956 b 167 776 310 956 204 860 b 150 654 150 739 144 694 b 215 478 157 592 185 532 b 83 260 165 410 118 338 b 46 110 63 213 42 161 b 149 17 51 51 90 17 b 454 176 239 17 390 113 z m 224 653 b 235 749 218 685 221 719 b 403 881 260 800 339 881 b 433 843 426 881 433 865 b 392 718 433 800 414 757 b 263 540 356 656 307 599 b 224 653 244 576 229 614 z m 126 96 b 131 175 113 113 124 156 b 258 411 158 260 206 339 b 411 221 304 344 356 281 b 153 89 353 169 236 89 b 126 96 146 89 131 92 z "},"'":{"ha":138,"x_min":0,"x_max":0,"o":"m 103 871 b 93 886 100 876 94 881 b 92 947 89 896 90 936 b 74 992 106 965 96 992 b 46 979 63 992 54 985 b 32 939 35 969 33 953 b 33 872 28 917 28 893 b 76 828 38 856 57 828 b 103 871 97 828 114 850 z "},"‛":{"ha":138,"x_min":0,"x_max":0,"o":"m 103 871 b 93 886 100 876 94 881 b 92 947 89 896 90 936 b 74 992 106 965 96 992 b 46 979 63 992 54 985 b 32 939 35 969 33 953 b 33 872 28 917 28 893 b 76 828 38 856 57 828 b 103 871 97 828 114 850 z "},"(":{"ha":326,"x_min":0,"x_max":0,"o":"m 535 -278 b 490 -260 529 -274 499 -262 b 229 -12 357 -207 285 -147 b 169 203 200 56 181 129 b 174 631 150 344 150 490 b 233 849 186 706 207 779 b 301 1026 243 872 294 1004 b 276 1094 325 1056 311 1108 b 242 1064 261 1090 251 1076 b 89 663 172 974 108 771 b 99 174 60 503 64 333 b 301 -224 128 39 189 -135 b 508 -325 361 -272 435 -301 b 535 -278 538 -333 558 -297 z "},")":{"ha":385,"x_min":0,"x_max":0,"o":"m 265 21 b 317 428 311 150 331 292 b 150 921 300 600 231 768 b 21 1111 132 956 58 1096 b 10 1113 17 1113 14 1113 b -18 1081 -7 1113 -21 1097 b -14 1056 -17 1072 -18 1063 b -1 1028 -11 1053 -3 1032 b 101 814 29 956 67 886 b 239 289 185 642 236 482 b 74 -174 239 143 183 -68 b 60 -182 69 -178 64 -185 b 46 -179 56 -179 50 -179 b 29 -226 24 -179 8 -208 b 63 -240 39 -235 50 -240 b 265 21 150 -240 242 -46 z "},"+":{"ha":642,"x_min":0,"x_max":0,"o":"m 300 42 b 299 56 300 46 300 51 b 260 472 293 194 274 333 b 451 489 324 475 388 478 b 599 521 474 492 578 513 b 588 581 631 532 622 581 b 569 578 585 581 572 579 b 254 539 464 564 360 547 b 225 853 250 582 233 811 b 218 868 225 856 219 867 b 181 896 215 888 199 903 b 164 851 165 890 156 865 b 165 829 167 847 165 833 b 172 532 164 731 167 632 b 75 526 140 531 107 528 b 36 515 67 525 42 521 b 53 469 17 500 28 471 b 75 467 60 469 68 467 b 178 469 110 468 143 468 b 239 65 188 333 207 199 b 249 32 240 61 246 36 b 272 18 254 22 263 18 b 300 42 285 18 297 26 z "},",":{"ha":189,"x_min":0,"x_max":0,"o":"m 117 13 b 153 181 124 38 153 154 b 122 214 153 199 139 214 b 90 188 106 214 96 201 b 29 -24 74 153 29 15 b 67 -60 29 -46 49 -60 b 117 13 96 -60 111 -11 z "},"-":{"ha":556,"x_min":0,"x_max":0,"o":"m 531 485 b 481 535 531 506 500 528 b 369 550 446 547 407 549 b 69 553 331 551 108 549 b 43 557 61 554 51 558 b 39 507 18 551 14 515 b 471 474 90 489 419 492 b 486 464 478 472 481 468 b 503 457 492 460 497 457 b 531 485 517 457 531 468 z "},".":{"ha":158,"x_min":0,"x_max":0,"o":"m 118 171 b 125 226 136 183 138 208 b 107 242 121 233 113 236 b 74 257 99 251 86 257 b 29 229 56 257 38 246 b 74 151 13 193 35 151 b 118 171 90 151 106 161 z "},":":{"ha":157,"x_min":0,"x_max":0,"o":"m 81 708 b 113 750 97 715 117 733 b 68 779 110 768 86 779 b 32 743 49 779 32 764 b 81 708 32 718 57 700 z m 106 233 b 125 254 114 239 122 246 b 86 307 133 279 113 301 b 79 307 83 307 82 307 b 36 264 56 307 36 288 b 78 222 36 239 57 222 b 106 233 88 222 97 226 z "},";":{"ha":186,"x_min":0,"x_max":0,"o":"m 121 765 b 113 789 118 774 117 782 b 81 799 106 797 92 801 b 88 725 38 793 43 732 b 93 725 89 725 92 725 b 121 765 114 725 129 744 z m 94 124 b 104 167 99 131 103 158 b 125 269 110 200 113 236 b 125 319 153 276 153 315 b 121 319 124 319 122 319 b 85 310 110 319 92 315 b 40 140 51 276 42 185 b 69 110 39 121 54 110 b 94 124 79 110 89 114 z "},"<":{"ha":629,"x_min":0,"x_max":0,"o":"m 583 376 b 492 403 553 386 522 394 b 211 475 399 426 303 443 b 114 528 193 481 119 508 b 131 564 111 538 125 557 b 456 858 172 617 403 818 b 472 868 458 861 468 869 b 488 918 504 864 517 907 b 449 922 475 922 461 926 b 72 608 413 911 121 676 b 40 543 57 589 43 567 b 50 485 38 524 40 501 b 119 428 65 460 93 442 b 575 317 233 371 449 326 b 583 376 610 317 618 367 z "},"=":{"ha":672,"x_min":0,"x_max":0,"o":"m 551 678 b 533 683 546 681 540 682 b 200 722 425 707 313 714 b 68 728 182 724 86 728 b 33 688 46 726 26 708 b 56 644 36 681 51 651 b 78 633 61 636 69 633 b 103 665 93 633 107 646 b 343 643 183 657 264 651 b 538 626 369 640 513 626 b 551 678 567 628 576 664 z m 94 383 b 103 389 96 385 101 389 b 600 419 268 406 433 415 b 621 421 603 419 618 421 b 621 475 651 426 651 469 b 494 481 603 478 513 481 b 174 454 386 482 279 468 b 61 435 157 451 78 440 b 67 385 36 425 40 390 b 94 383 75 382 85 381 z "},">":{"ha":556,"x_min":0,"x_max":0,"o":"m 144 308 b 500 554 228 342 444 474 b 514 618 513 572 519 597 b 471 678 510 643 490 663 b 369 724 440 699 404 711 b 88 817 276 757 179 781 b 63 822 82 818 67 822 b 49 772 31 828 19 786 l 60 761 b 203 701 79 750 182 710 b 432 603 244 688 401 633 b 115 372 394 542 176 406 b 83 349 104 365 93 357 b 101 299 63 332 75 299 b 144 308 115 299 131 303 z "},"?":{"ha":575,"x_min":0,"x_max":0,"o":"m 308 381 b 263 410 303 388 269 406 b 208 468 244 422 207 447 b 339 631 211 514 306 600 b 511 813 400 688 463 744 b 547 911 531 842 547 876 b 340 1057 547 1017 428 1057 b 58 960 250 1057 124 1019 b 36 896 42 944 25 915 b 58 883 40 888 49 883 b 83 904 69 883 81 890 b 88 917 85 908 85 914 b 314 975 118 957 263 975 b 456 914 351 975 451 960 b 431 860 457 901 439 871 b 151 549 347 749 229 665 b 125 472 138 526 126 500 b 215 361 125 414 169 386 b 281 335 225 357 271 338 b 308 381 307 328 325 360 z m 292 3 b 278 103 297 21 281 85 b 269 146 275 117 274 132 b 235 174 264 164 250 174 b 210 158 225 174 215 169 b 210 60 200 142 207 79 b 258 -19 211 32 221 -19 b 292 3 272 -19 286 -12 z "},"@":{"ha":919,"x_min":0,"x_max":0,"o":"m 613 150 b 597 204 647 161 632 214 b 413 171 536 189 475 172 b 240 218 353 169 290 186 b 135 363 190 250 147 304 b 317 756 100 514 181 685 b 503 799 372 785 438 799 b 747 693 592 799 697 774 b 767 413 792 622 817 479 b 718 393 757 399 738 393 b 683 400 706 393 693 396 b 642 438 667 408 654 422 b 588 535 618 465 606 503 b 604 581 613 538 624 565 b 588 592 603 582 590 590 b 522 658 567 615 549 642 b 468 672 507 667 486 672 b 286 475 388 672 315 540 b 264 376 272 444 261 410 b 333 315 268 342 297 315 b 415 353 363 315 393 333 b 528 471 457 388 492 429 b 717 315 564 389 617 315 b 864 474 808 315 854 390 b 824 718 875 556 864 646 b 511 878 761 832 636 878 b 65 535 297 878 113 751 b 69 318 49 464 47 386 b 379 99 114 190 243 99 b 613 150 460 99 536 124 z m 485 597 b 532 568 496 596 524 575 b 496 544 518 564 506 554 b 407 442 485 532 418 453 b 343 393 388 422 368 403 b 485 597 347 431 432 597 z "},"A":{"ha":582,"x_min":0,"x_max":0,"o":"m 72 -44 b 78 25 74 -22 75 1 b 136 324 92 125 114 224 b 381 326 218 321 299 319 b 414 129 383 289 393 160 b 422 108 417 126 421 111 b 446 94 428 99 438 94 b 474 122 460 94 474 106 b 472 144 474 131 471 138 b 469 199 475 153 469 190 b 460 333 469 215 461 315 b 543 349 475 335 531 340 b 533 403 567 363 561 399 b 456 396 521 406 468 397 b 449 644 451 478 449 561 b 432 933 447 692 450 889 b 381 974 422 956 406 974 b 267 863 333 974 293 907 b 96 375 181 714 135 543 b 61 375 83 376 72 379 b 65 326 36 367 39 331 b 83 325 68 325 81 325 b 21 -40 57 204 28 83 b 47 -68 19 -58 33 -68 b 72 -44 60 -68 71 -60 z m 331 863 b 372 908 338 872 363 903 b 379 811 379 893 379 828 b 372 628 379 788 374 650 b 376 386 369 547 371 467 b 149 375 300 379 224 375 b 331 863 189 539 235 721 z "},"B":{"ha":760,"x_min":0,"x_max":0,"o":"m 628 151 b 725 250 665 178 703 210 b 736 340 740 276 747 311 b 428 468 701 439 522 468 b 278 464 378 468 328 463 b 356 529 303 488 329 508 b 500 657 406 571 454 611 b 590 763 533 689 565 724 b 615 851 607 789 618 821 b 572 922 611 879 594 906 b 369 982 522 965 433 982 b 243 965 326 982 283 976 b 225 971 238 969 232 971 b 200 958 215 971 206 967 b 194 950 199 956 197 951 b 29 875 167 940 53 893 b 83 774 -11 844 36 792 b 93 772 86 772 90 772 b 104 821 117 772 129 808 b 71 840 92 826 81 832 b 188 889 108 860 149 875 b 158 272 176 683 156 478 b 188 71 158 204 168 136 b 172 71 183 71 178 72 b 163 18 146 67 140 32 b 263 4 182 10 239 4 b 628 151 388 4 528 82 z m 260 826 b 256 908 260 854 258 882 b 365 922 292 917 329 922 b 547 863 415 922 514 907 b 503 754 568 831 529 783 b 247 526 424 672 332 603 b 260 826 249 564 258 789 z m 243 397 b 399 400 294 393 347 399 b 585 379 461 401 525 399 b 678 304 621 365 682 342 b 550 179 674 260 588 203 b 251 69 457 121 363 75 b 243 397 239 178 240 289 z "},"C":{"ha":679,"x_min":0,"x_max":0,"o":"m 632 240 b 663 340 649 271 664 306 b 635 367 661 356 647 367 b 618 361 629 367 622 365 b 606 322 607 351 608 335 b 557 233 600 307 565 246 b 313 38 506 153 419 38 b 143 181 236 38 167 100 b 132 349 126 235 125 293 b 404 914 151 525 260 797 b 435 936 414 922 424 931 b 422 700 457 889 439 749 b 415 686 421 697 418 688 b 433 638 390 671 404 633 b 453 646 440 639 447 642 b 499 782 476 665 494 751 b 506 919 506 828 511 874 b 438 1007 500 958 485 1007 b 336 954 404 1007 364 982 b 50 393 188 813 85 594 b 44 213 39 335 35 272 b 301 -39 63 85 164 -39 b 632 240 456 -39 569 117 z "},"D":{"ha":786,"x_min":0,"x_max":0,"o":"m 276 -43 b 267 32 276 -33 268 22 b 757 614 457 143 753 367 b 574 897 757 733 679 844 b 382 942 517 928 449 942 b 42 839 274 942 135 894 b 19 815 32 833 24 825 b 43 774 14 797 26 779 b 108 764 60 768 90 764 b 124 810 132 764 144 793 b 210 839 153 821 181 831 b 158 415 183 708 164 549 b 186 63 156 297 163 178 b 114 42 164 51 139 38 b 108 42 113 42 110 42 b 99 -11 79 42 68 0 b 133 -17 110 -15 122 -17 b 201 -3 157 -17 181 -11 b 249 -71 207 -22 222 -71 b 276 -43 263 -71 276 -60 z m 249 401 b 269 700 250 500 258 600 b 281 856 275 751 282 804 b 368 864 308 861 339 864 b 610 774 454 864 549 835 b 681 600 654 729 685 663 b 260 107 667 397 418 214 b 249 401 253 206 247 303 z "},"E":{"ha":635,"x_min":0,"x_max":0,"o":"m 367 32 b 610 171 465 57 542 97 b 586 217 629 190 611 222 b 563 203 576 215 569 208 b 286 88 493 143 381 88 b 249 92 274 88 261 89 b 156 233 183 113 168 174 b 147 411 146 292 146 351 b 436 460 244 424 343 432 b 424 514 471 469 458 519 b 151 467 389 510 185 474 b 278 913 157 550 185 885 b 297 915 285 914 290 915 b 486 872 339 915 451 885 b 540 846 496 868 531 846 b 553 894 567 846 575 881 b 293 974 493 935 369 974 b 149 844 213 974 174 917 b 75 454 101 721 83 586 b 47 449 65 453 56 453 b 61 400 25 435 35 400 b 72 400 64 400 72 403 b 86 207 71 336 74 271 b 251 25 104 124 158 33 b 367 32 290 19 331 24 z "},"F":{"ha":696,"x_min":0,"x_max":0,"o":"m 289 88 b 251 393 246 181 249 290 b 385 414 268 396 368 411 b 513 440 400 417 496 438 b 501 496 550 449 539 501 b 372 481 485 494 389 482 b 254 457 358 478 269 461 b 260 614 256 510 258 563 b 274 847 261 643 274 818 b 525 890 357 861 442 875 b 672 919 575 899 624 911 b 668 976 707 926 703 976 b 429 958 588 974 507 972 b 243 918 367 947 304 933 l 233 918 b 217 911 226 917 222 913 l 92 882 b 29 860 79 879 39 871 b 47 817 17 844 26 821 b 188 833 69 814 165 831 l 188 814 b 163 436 167 689 160 563 b 51 400 146 432 67 408 b 64 351 29 386 38 351 b 106 364 71 351 99 363 b 165 378 113 367 158 376 b 242 64 172 244 181 179 b 264 50 247 54 256 50 b 289 88 282 50 299 67 z "},"G":{"ha":706,"x_min":0,"x_max":0,"o":"m 683 304 b 679 381 688 329 686 357 b 619 469 668 415 646 446 b 453 532 575 510 511 533 b 436 535 447 532 442 535 b 388 524 428 535 396 526 b 379 471 367 515 361 486 b 422 464 390 463 407 464 b 543 449 463 467 507 467 b 617 376 574 433 603 408 b 621 301 628 354 629 325 b 403 107 589 214 482 144 b 303 85 371 94 338 85 b 142 411 160 85 142 308 b 313 885 143 540 190 807 b 360 896 326 893 344 900 b 478 776 386 892 454 790 b 499 771 483 774 493 771 b 511 818 522 771 536 803 l 504 825 b 428 944 478 864 458 910 b 343 982 404 971 374 982 b 128 790 236 982 168 875 b 63 278 56 633 33 447 b 293 14 85 154 150 14 b 683 304 429 14 658 156 z "},"H":{"ha":711,"x_min":0,"x_max":0,"o":"m 190 86 b 179 497 181 224 178 361 b 372 504 243 499 308 501 b 556 521 433 507 494 511 b 540 117 553 468 539 169 b 544 76 533 106 536 88 b 568 65 551 69 560 65 b 592 82 578 65 588 71 b 615 313 604 115 613 276 b 631 538 621 388 625 463 b 633 586 649 549 650 574 b 642 814 638 663 642 738 b 643 881 642 822 642 872 b 647 888 643 882 646 886 b 619 921 654 908 638 921 b 586 907 608 921 596 917 b 574 828 574 894 574 844 b 560 589 569 747 564 668 b 181 560 432 583 306 571 b 189 921 181 606 186 876 b 161 974 214 942 186 974 b 136 958 151 974 142 969 b 92 564 110 915 94 619 b 40 544 81 561 49 553 b 47 506 31 532 33 514 b 90 499 60 499 76 499 b 107 167 88 388 90 276 b 161 28 113 126 124 42 b 190 86 206 13 236 75 z "},"I":{"ha":374,"x_min":0,"x_max":0,"o":"m 344 18 b 329 72 369 32 360 72 b 296 67 325 72 301 68 b 224 63 286 65 233 63 b 215 81 221 68 218 74 b 200 217 200 107 200 186 b 215 679 200 274 214 622 b 213 901 215 714 222 868 b 315 908 229 901 300 903 b 315 961 339 917 339 951 b 267 964 307 964 275 963 b 128 964 221 964 175 963 l 99 964 b 94 910 69 958 67 919 b 154 901 103 907 146 903 b 133 729 149 878 136 754 b 119 415 126 625 121 521 b 128 165 118 332 117 249 b 158 60 133 129 140 92 b 97 58 150 60 104 58 b 68 60 90 58 74 57 b 51 67 63 64 57 67 b 33 19 32 67 17 40 b 126 0 47 3 104 0 b 344 18 168 -3 307 -3 z "},"J":{"ha":685,"x_min":0,"x_max":0,"o":"m 525 235 b 525 386 529 286 529 336 b 472 907 514 561 494 735 b 667 954 500 913 640 944 b 658 1008 697 967 689 1008 b 654 1008 657 1008 656 1008 b 464 981 590 999 526 992 b 213 932 433 975 243 938 b 201 933 210 932 203 933 b 164 926 196 933 169 929 b 163 874 140 918 138 883 b 200 872 174 869 188 871 b 407 897 226 874 379 893 b 414 699 401 831 408 764 b 456 268 425 556 450 413 b 449 179 457 239 457 207 b 331 117 435 135 381 117 b 74 267 243 117 122 193 b 60 288 72 269 63 286 b 39 299 54 294 46 299 b 10 265 22 299 7 285 b 63 178 14 246 50 192 b 329 53 121 110 236 53 b 525 235 449 53 517 118 z "},"K":{"ha":650,"x_min":0,"x_max":0,"o":"m 210 11 b 203 19 210 13 203 18 b 165 111 178 42 172 79 b 153 244 158 154 154 200 b 333 258 213 251 272 258 b 572 211 394 258 529 242 b 600 188 576 194 589 188 b 625 218 614 188 628 199 b 592 269 622 239 608 258 b 335 339 533 315 407 339 b 214 333 294 339 254 336 b 542 685 306 401 493 576 b 564 763 554 708 561 735 b 561 811 565 778 567 796 b 519 850 557 825 536 850 b 500 808 500 850 486 825 b 511 797 503 806 510 800 b 503 739 514 778 510 757 b 150 379 468 633 236 442 b 186 804 156 521 175 663 b 182 938 188 831 196 914 b 156 953 176 949 165 953 b 125 928 142 953 128 944 b 117 896 122 917 118 907 b 90 692 115 871 93 718 b 69 324 75 569 65 446 b 51 278 58 311 49 293 b 74 249 54 265 64 256 b 144 -1 79 181 96 53 b 181 -32 150 -8 172 -28 b 210 11 206 -40 228 -10 z "},"L":{"ha":635,"x_min":0,"x_max":0,"o":"m 290 -35 b 617 138 338 -15 572 110 b 603 189 642 154 629 189 b 450 124 578 189 476 138 b 181 4 403 99 233 3 b 160 15 169 4 164 7 b 140 256 132 56 136 207 b 199 704 151 406 181 554 b 210 860 204 756 210 808 b 214 878 210 867 214 872 b 182 918 214 896 203 918 b 157 904 172 918 163 914 b 150 886 154 899 151 892 b 114 689 138 821 126 754 b 58 121 78 501 38 310 b 181 -65 67 46 83 -65 b 290 -35 218 -65 256 -50 z "},"M":{"ha":783,"x_min":0,"x_max":0,"o":"m 714 61 b 713 75 713 65 714 71 b 708 125 713 81 708 118 b 699 640 689 296 697 468 b 692 901 699 728 699 815 b 681 956 689 919 689 939 b 646 976 672 968 660 976 b 606 944 626 976 614 960 b 488 594 579 897 504 646 b 425 411 468 532 450 471 b 392 349 417 389 407 367 b 294 715 363 401 306 656 b 261 863 290 738 271 842 b 226 886 256 876 240 886 b 210 882 221 886 215 885 b 190 854 200 875 194 865 b 181 806 185 839 183 822 b 82 315 150 642 118 478 b 36 111 76 288 46 138 b 57 54 6 93 25 42 b 103 147 82 63 96 122 b 135 271 115 189 125 231 b 221 692 167 411 196 551 b 319 328 243 568 267 443 b 389 268 331 300 354 268 b 453 317 413 268 443 296 b 531 524 485 383 508 454 b 625 815 563 621 593 718 b 618 281 621 638 611 458 b 660 39 621 222 628 86 b 686 22 667 26 676 22 b 714 61 704 22 722 39 z "},"N":{"ha":678,"x_min":0,"x_max":0,"o":"m 126 -3 b 129 61 131 7 129 50 b 138 440 133 188 135 314 b 167 782 140 554 143 671 b 225 592 192 721 210 656 b 379 74 246 510 338 146 b 415 22 390 56 400 36 b 464 0 428 10 446 0 b 558 119 513 0 546 81 b 615 575 607 265 615 422 b 600 842 615 664 610 754 b 575 918 597 868 596 901 b 557 925 569 924 563 925 b 525 879 538 925 519 903 b 539 758 532 839 536 799 b 540 376 549 632 550 504 b 467 82 533 290 514 158 b 404 268 454 107 411 240 b 308 626 369 386 344 508 b 181 890 292 681 236 868 b 164 893 175 893 169 893 b 122 868 147 893 132 885 b 72 511 85 792 74 593 b 76 60 69 361 71 210 l 76 8 b 103 -19 76 -10 90 -19 b 126 -3 113 -19 122 -14 z "},"O":{"ha":731,"x_min":0,"x_max":0,"o":"m 660 315 b 688 557 682 393 693 476 b 503 815 682 671 639 815 b 307 714 431 815 354 764 b 289 694 304 711 290 697 b 313 653 278 676 292 653 b 374 693 328 653 361 685 b 501 750 408 718 457 750 b 547 740 517 750 533 747 b 633 511 618 699 633 585 b 322 67 631 336 533 67 b 149 258 213 67 164 164 b 171 604 128 372 139 494 b 367 882 203 711 261 833 b 444 903 390 893 418 899 b 453 901 447 903 451 904 b 476 883 456 889 467 883 b 503 904 489 883 500 890 b 483 947 506 917 494 939 b 419 963 465 960 443 963 b 46 367 149 963 46 583 b 310 -4 46 207 117 -4 b 660 315 494 -4 613 153 z "},"P":{"ha":744,"x_min":0,"x_max":0,"o":"m 272 19 b 247 54 279 38 265 54 b 235 51 243 54 239 54 b 228 210 225 104 226 157 b 232 317 229 244 231 281 b 731 814 358 378 731 651 b 474 979 731 943 578 979 b 169 925 372 979 263 963 b 93 871 149 917 100 890 b 132 824 85 847 108 831 b 139 822 135 824 138 822 b 163 858 157 822 169 840 b 203 875 175 865 189 871 b 175 707 188 821 181 763 b 149 351 161 589 153 469 b 71 324 124 340 97 331 b 47 338 65 333 57 338 b 22 319 36 338 26 332 b 43 268 15 300 24 276 b 69 264 51 265 61 264 b 147 279 96 264 122 271 b 226 -15 147 224 147 -15 b 272 19 246 -15 265 0 z m 265 831 b 272 854 269 838 274 846 b 264 885 271 865 265 875 b 265 890 264 888 264 889 b 458 908 328 903 394 908 b 661 828 518 908 640 901 b 540 635 676 769 585 676 b 236 396 447 544 347 463 b 265 831 244 542 257 686 z "},"Q":{"ha":753,"x_min":0,"x_max":0,"o":"m 729 -25 b 707 13 729 -11 715 1 b 590 160 669 64 629 111 b 664 331 624 213 647 271 b 688 557 683 404 692 482 b 503 815 682 671 639 815 b 307 714 431 815 354 764 b 289 694 304 711 290 697 b 313 653 278 676 292 653 b 374 693 328 653 361 685 b 501 750 408 718 457 750 b 547 740 517 750 533 747 b 633 504 621 697 633 579 b 549 211 631 403 603 297 b 417 399 501 271 457 333 b 400 429 411 408 407 419 b 386 457 393 438 390 447 b 363 475 382 469 372 475 b 336 444 349 475 333 463 b 349 406 339 431 347 418 b 375 347 350 394 371 357 b 501 150 413 279 456 214 b 326 68 457 104 390 68 b 149 258 214 68 165 157 b 171 604 128 372 139 494 b 367 882 203 711 261 833 b 444 903 390 893 418 899 b 453 901 447 903 451 904 b 476 883 456 889 467 883 b 503 904 489 883 500 890 b 483 947 506 917 494 939 b 419 963 465 960 443 963 b 46 367 149 963 46 583 b 310 -4 46 204 117 -4 b 540 97 399 -4 478 35 b 658 -37 575 50 613 0 b 690 -57 668 -44 679 -54 b 729 -25 711 -60 729 -46 z "},"R":{"ha":885,"x_min":0,"x_max":0,"o":"m 364 24 b 350 103 360 50 353 76 b 343 204 346 138 344 171 b 561 235 414 221 488 235 b 756 189 589 235 743 222 b 758 161 757 186 758 165 b 786 139 761 147 774 139 b 810 153 796 139 804 143 b 822 196 818 165 824 181 b 565 314 822 294 638 314 b 382 292 504 314 442 304 b 603 479 460 349 533 411 b 849 865 686 561 872 750 b 511 1001 824 986 613 1001 b 94 878 350 1001 236 953 b 7 824 79 869 18 838 b 24 782 -6 808 4 785 b 58 785 29 781 53 783 b 79 803 68 786 76 792 b 276 886 144 832 208 864 b 269 836 269 875 264 847 b 263 407 268 782 263 461 b 265 285 263 392 265 301 b 196 243 256 279 204 250 b 224 178 168 219 189 175 b 272 188 240 178 256 183 b 336 -8 275 153 292 -8 b 364 24 351 -8 367 6 z m 344 439 b 338 822 343 567 347 694 b 319 892 336 839 332 882 b 311 899 317 894 307 897 b 501 922 372 917 438 922 b 707 896 571 922 642 917 b 769 861 729 888 756 881 b 772 817 778 849 776 831 b 343 340 724 671 460 426 b 344 439 343 374 344 406 z "},"S":{"ha":793,"x_min":0,"x_max":0,"o":"m 624 138 b 758 249 674 167 726 200 b 772 314 771 267 776 292 b 746 364 769 332 760 350 b 686 414 729 383 708 399 b 179 614 535 514 349 550 b 99 663 160 621 107 643 b 115 706 93 674 108 696 b 458 869 194 813 328 869 b 600 835 496 869 578 864 b 603 818 603 829 604 824 b 586 782 603 804 593 793 b 611 739 575 761 592 739 b 629 746 617 739 624 740 b 664 771 633 749 660 765 b 663 804 672 781 672 794 b 642 885 669 833 663 864 b 456 940 599 931 515 940 b 88 790 317 940 186 889 b 24 703 63 765 38 736 b 24 631 15 681 14 653 b 229 507 53 563 164 528 b 585 383 349 471 471 438 b 699 304 613 369 689 332 b 688 282 701 297 692 288 b 415 140 638 232 482 164 b 269 114 369 125 319 114 b 218 118 253 114 235 115 b 193 132 213 128 203 132 b 168 118 183 132 174 128 b 193 61 157 97 171 72 b 306 33 226 43 267 33 b 624 138 415 33 531 85 z "},"T":{"ha":593,"x_min":0,"x_max":0,"o":"m 400 28 b 393 43 399 33 396 38 b 336 271 347 135 340 171 b 358 804 331 449 354 626 b 360 896 360 835 360 865 b 542 871 383 893 518 875 b 547 867 544 869 546 868 b 567 860 553 863 560 860 b 590 874 575 860 585 864 b 557 931 603 896 579 918 b 338 971 503 958 399 971 b 329 974 335 971 332 972 b 306 971 322 976 313 975 b 75 940 228 968 151 954 b 50 949 69 947 60 951 b 4 924 38 947 10 935 b 25 882 -7 907 6 886 b 43 881 29 881 36 881 b 168 890 79 881 149 889 b 282 897 206 894 244 897 b 257 678 271 825 264 751 b 236 353 246 569 239 461 b 256 146 233 283 235 213 b 354 1 274 90 310 39 b 372 -6 360 -3 365 -6 b 400 28 388 -6 403 8 z "},"U":{"ha":696,"x_min":0,"x_max":0,"o":"m 618 378 b 636 664 633 472 638 568 b 596 1013 636 708 631 985 b 579 1018 590 1017 585 1018 b 554 986 564 1018 549 1004 b 576 828 568 935 572 881 b 540 294 586 650 588 467 b 357 69 518 221 453 69 b 253 144 314 69 274 110 b 168 429 200 228 181 331 b 154 810 153 556 150 683 b 146 932 156 833 157 913 b 115 950 139 944 126 950 b 83 932 103 950 90 944 b 61 811 72 914 63 833 b 126 236 46 619 61 417 b 356 7 161 139 236 7 b 618 378 518 7 596 247 z "},"V":{"ha":667,"x_min":0,"x_max":0,"o":"m 482 86 b 553 285 514 149 535 217 b 603 961 611 503 619 736 b 575 989 601 979 588 989 b 550 961 563 989 549 979 b 547 731 554 883 550 807 b 410 103 540 556 506 257 b 393 83 404 96 400 89 b 379 75 390 81 383 75 b 233 396 331 89 247 351 b 142 751 197 513 168 632 b 85 1018 135 785 92 985 b 57 1042 82 1033 71 1042 b 29 1022 46 1042 35 1035 b 28 956 22 1001 25 978 b 186 246 43 740 107 446 b 378 0 214 174 283 0 b 482 86 428 0 461 46 z "},"W":{"ha":956,"x_min":0,"x_max":0,"o":"m 258 60 b 490 493 356 157 447 365 b 703 110 501 397 576 110 b 772 142 731 110 754 121 b 865 319 819 189 846 256 b 900 642 896 422 906 533 b 864 893 897 726 888 811 b 800 992 857 917 831 992 b 774 954 782 992 767 974 b 790 915 778 942 786 929 b 825 767 810 868 818 818 b 801 329 844 622 846 468 b 706 178 792 301 746 178 b 593 389 663 182 603 356 b 561 771 558 511 554 643 b 522 813 563 796 543 813 b 492 794 511 813 500 807 b 482 736 482 776 486 756 b 260 169 444 536 372 338 b 194 99 242 143 222 114 b 157 483 158 160 158 411 b 157 899 157 622 157 761 b 125 957 157 919 153 957 b 96 940 114 957 103 951 b 82 851 89 926 83 867 b 72 383 68 696 67 539 b 83 236 75 333 78 285 b 110 97 88 189 94 142 b 188 25 125 63 144 25 b 258 60 215 25 239 42 z "},"X":{"ha":724,"x_min":0,"x_max":0,"o":"m 56 22 b 92 56 64 25 86 47 b 99 78 97 61 99 71 b 164 182 107 90 156 168 b 383 514 190 222 356 474 b 549 203 442 413 497 308 b 606 81 556 188 596 96 b 633 47 613 68 619 51 b 663 92 661 36 681 69 b 643 154 660 100 646 146 b 529 425 611 246 574 338 b 432 589 499 481 465 535 b 667 924 508 703 581 818 b 688 925 669 926 683 925 b 700 971 708 929 717 957 b 678 978 694 975 686 978 b 635 967 663 978 646 972 b 538 853 611 954 554 874 b 392 654 488 788 440 721 b 297 800 361 703 329 751 b 167 996 281 825 182 969 b 142 1011 161 1007 151 1011 b 117 968 124 1011 104 990 b 342 583 189 838 265 711 b 42 135 238 436 139 286 b 10 60 28 111 17 86 b 56 22 3 35 29 15 z "},"Y":{"ha":692,"x_min":0,"x_max":0,"o":"m 417 -4 b 413 46 414 13 414 29 b 400 285 410 125 408 206 b 388 371 397 314 392 342 b 504 493 435 394 476 450 b 674 897 583 617 642 756 b 674 958 679 918 685 942 b 649 974 668 969 658 974 b 624 938 632 974 615 958 b 408 468 593 789 508 588 b 351 428 396 453 371 428 b 278 513 325 428 289 490 b 63 932 246 575 108 879 b 46 944 60 935 50 943 b 32 949 42 947 38 949 b 10 911 15 949 1 929 b 11 903 10 910 11 904 b 24 879 13 900 22 882 b 190 524 81 761 131 640 b 318 368 217 468 258 393 b 340 97 317 331 336 135 b 350 25 343 74 346 49 b 390 -36 353 4 363 -36 b 417 -4 406 -36 421 -24 z "},"Z":{"ha":679,"x_min":0,"x_max":0,"o":"m 646 47 b 633 100 676 58 667 100 b 579 103 626 100 586 103 b 214 113 533 104 260 110 b 143 125 190 115 165 118 b 128 139 136 128 126 132 b 229 275 132 172 207 251 b 425 481 293 344 361 411 b 596 740 489 551 575 644 b 563 871 607 789 594 833 b 289 951 501 942 378 951 b 17 878 219 951 35 950 b 42 844 11 858 26 844 b 64 857 50 844 58 847 b 71 867 65 861 65 864 b 211 886 115 881 164 885 b 469 853 289 886 396 886 b 519 814 488 843 507 831 b 529 750 532 796 535 771 b 475 640 519 711 499 674 b 118 240 374 493 235 376 b 64 136 93 210 65 175 b 233 42 61 64 163 50 b 428 32 299 35 363 32 b 646 47 464 33 613 33 z "},"^":{"ha":374,"x_min":0,"x_max":0,"o":"m 329 663 b 319 671 328 663 321 669 b 208 789 304 689 228 775 b 182 801 200 794 192 800 b 150 794 171 803 158 800 b 36 675 106 764 72 718 b 56 632 19 654 36 632 b 76 643 63 632 71 635 b 175 746 106 681 138 717 b 288 626 192 732 272 640 b 318 613 296 618 307 613 b 329 663 344 613 356 649 z "},"ˆ":{"ha":374,"x_min":0,"x_max":0,"o":"m 329 663 b 319 671 328 663 321 669 b 208 789 304 689 228 775 b 182 801 200 794 192 800 b 150 794 171 803 158 800 b 36 675 106 764 72 718 b 56 632 19 654 36 632 b 76 643 63 632 71 635 b 175 746 106 681 138 717 b 288 626 192 732 272 640 b 318 613 296 618 307 613 b 329 663 344 613 356 649 z "},"_":{"ha":774,"x_min":0,"x_max":0,"o":"m 676 -222 b 756 -208 703 -219 729 -215 b 743 -156 788 -200 776 -151 b 606 -167 692 -165 660 -167 b 107 -178 544 -168 168 -176 b 82 -156 106 -164 94 -156 b 7 -186 63 -156 18 -171 b 18 -231 -6 -200 0 -224 b 75 -236 26 -233 65 -235 b 285 -239 144 -237 214 -239 b 676 -222 415 -239 546 -235 z "},"`":{"ha":192,"x_min":0,"x_max":0,"o":"m 146 714 b 75 757 121 725 96 738 b 50 778 72 771 61 778 b 25 761 39 778 29 772 b 35 724 21 749 26 733 b 133 665 63 697 97 676 b 146 714 168 653 181 700 z "},"a":{"ha":408,"x_min":0,"x_max":0,"o":"m 200 276 b 290 447 235 331 263 389 b 311 271 289 388 294 328 b 365 231 319 246 340 222 b 381 274 382 238 389 257 b 372 339 379 294 375 317 b 367 575 364 417 367 496 b 361 622 367 590 369 608 b 333 638 356 632 344 638 b 307 625 324 638 314 633 b 290 593 303 621 293 599 b 228 640 276 621 263 640 b 142 590 196 640 163 618 b 26 325 93 526 46 403 b 26 232 19 294 15 261 b 90 190 38 204 63 190 b 200 276 140 190 176 238 z m 92 256 b 114 371 82 279 106 347 b 157 471 128 404 140 439 b 229 574 169 497 203 565 b 247 550 240 578 244 561 b 258 517 251 539 253 526 b 150 306 226 444 193 371 b 114 264 139 292 128 276 b 92 256 108 260 99 253 z "},"b":{"ha":471,"x_min":0,"x_max":0,"o":"m 144 149 b 174 218 161 168 167 194 b 210 213 185 214 197 213 b 444 358 288 213 429 268 b 429 464 451 393 442 431 b 372 569 415 501 397 539 b 311 608 358 589 336 608 b 279 599 299 608 288 604 b 124 253 211 556 147 329 b 122 333 124 265 119 322 l 122 350 b 140 892 122 415 140 826 b 111 921 140 910 126 921 b 86 907 101 921 92 917 b 72 828 79 894 74 842 b 47 342 58 665 42 504 b 86 149 47 306 60 181 b 114 135 93 139 104 135 b 144 149 125 135 136 139 z m 190 274 b 308 546 203 319 268 518 b 363 451 326 533 356 471 b 376 364 372 424 383 392 b 239 282 365 324 278 294 b 190 274 222 276 206 271 z "},"c":{"ha":322,"x_min":0,"x_max":0,"o":"m 296 293 b 268 339 319 313 296 351 b 172 299 236 324 206 308 b 150 296 165 297 158 296 b 99 338 124 296 107 314 b 99 454 85 374 88 417 b 183 585 110 488 151 569 b 192 585 185 586 190 586 b 229 547 197 581 224 551 b 247 539 235 542 242 539 b 265 583 267 539 283 565 b 224 629 250 599 240 617 b 178 646 208 642 193 646 b 39 496 121 646 68 567 b 26 336 19 447 13 389 b 142 231 42 279 78 231 b 296 293 193 231 256 264 z "},"d":{"ha":453,"x_min":0,"x_max":0,"o":"m 417 -37 b 407 -14 414 -29 410 -22 b 396 54 401 8 399 32 b 376 503 381 203 378 353 b 379 878 375 628 375 753 b 382 931 381 896 388 914 b 351 951 378 944 365 951 b 326 940 343 951 333 947 b 315 890 315 928 317 907 b 308 804 314 881 308 814 b 268 606 304 776 275 632 b 213 629 253 622 233 629 b 33 369 114 629 42 453 b 42 257 28 332 31 293 b 119 179 51 217 82 179 b 301 476 207 179 279 407 b 371 -64 303 381 307 4 b 392 -74 376 -71 385 -74 b 417 -37 408 -74 424 -58 z m 106 313 b 131 428 104 351 115 392 b 194 543 146 469 165 510 b 226 563 200 551 217 564 b 238 549 231 561 236 553 b 244 518 242 542 247 525 b 122 253 225 450 176 301 b 106 313 111 271 107 292 z "},"e":{"ha":344,"x_min":0,"x_max":0,"o":"m 313 271 b 300 321 338 285 328 321 b 285 318 294 321 289 319 b 251 314 276 315 264 314 b 117 350 206 314 143 331 b 85 404 100 363 89 383 b 150 393 106 397 128 393 b 238 414 181 393 211 400 b 189 617 346 472 296 617 b 64 546 136 617 94 586 b 93 286 -4 463 -3 336 b 235 253 136 264 186 253 b 313 271 263 253 290 257 z m 90 458 b 189 554 104 499 142 554 b 239 499 221 554 249 531 b 142 449 229 464 174 449 b 90 458 125 449 107 453 z "},"f":{"ha":385,"x_min":0,"x_max":0,"o":"m 246 42 b 194 390 229 92 200 339 b 357 443 226 396 342 417 b 325 486 369 465 350 493 b 190 456 307 482 208 458 b 206 821 183 578 186 700 b 236 894 207 832 219 894 b 281 842 254 894 271 858 b 304 826 286 832 296 826 b 329 861 321 826 336 842 b 289 922 325 874 297 914 b 254 950 279 933 268 943 b 228 956 244 954 236 956 b 139 872 188 956 153 917 b 110 719 124 822 115 771 b 107 443 101 628 100 535 b 67 439 100 442 74 438 b 32 428 58 440 38 433 b 44 381 14 413 24 388 b 60 379 47 379 53 379 b 113 382 78 379 103 382 b 200 15 119 325 163 56 b 221 6 206 8 214 6 b 246 42 238 6 253 21 z "},"g":{"ha":438,"x_min":0,"x_max":0,"o":"m 393 150 b 386 421 400 240 393 331 b 381 617 385 446 381 592 b 346 651 381 638 364 651 b 324 643 338 651 331 649 b 301 592 310 632 306 610 b 275 636 296 607 288 624 b 219 657 260 649 239 657 b 65 539 154 657 90 594 b 29 349 38 481 15 411 b 131 253 40 296 81 253 b 313 447 217 253 282 382 b 324 158 317 351 328 254 b 269 -4 321 117 314 8 b 104 49 233 -14 138 33 b 88 53 99 51 93 53 b 78 3 61 53 47 21 b 228 -71 125 -25 174 -57 b 257 -74 238 -74 247 -74 b 393 150 371 -74 386 64 z m 124 318 b 94 394 97 326 92 367 b 228 593 106 467 156 581 b 240 593 231 594 238 593 b 261 557 246 589 257 563 b 289 549 268 549 278 546 b 131 317 272 503 193 317 b 124 318 128 317 126 318 z "},"h":{"ha":539,"x_min":0,"x_max":0,"o":"m 514 278 b 511 361 519 292 514 346 b 486 474 506 399 497 438 b 440 582 476 513 464 550 b 372 621 425 606 400 621 b 271 563 329 621 299 590 b 142 361 215 504 183 428 b 118 518 125 411 121 465 b 111 849 111 628 114 739 b 106 876 110 858 110 868 l 106 894 b 79 915 103 908 92 915 b 54 894 68 915 57 908 b 50 872 53 886 51 879 b 40 765 43 856 42 783 b 61 385 36 639 32 508 b 93 306 68 357 76 328 b 151 285 104 289 133 279 b 178 306 161 289 171 297 b 272 458 194 325 258 438 b 342 539 292 488 314 517 b 375 554 350 546 367 558 b 399 518 383 550 394 526 b 444 346 422 464 429 404 b 463 278 447 338 460 286 b 489 260 467 265 478 260 b 514 278 499 260 510 265 z "},"i":{"ha":153,"x_min":0,"x_max":0,"o":"m 117 769 b 106 792 114 778 108 783 b 101 840 101 800 100 831 b 101 879 113 851 114 869 b 81 886 96 885 88 886 b 56 876 71 886 61 883 b 49 765 36 851 33 794 b 85 732 56 756 74 735 b 117 769 107 728 125 750 z m 121 296 b 106 426 118 339 110 383 b 97 603 104 449 99 581 b 100 618 97 604 100 615 b 75 643 100 633 88 643 b 57 638 68 643 63 642 b 36 565 39 622 39 590 b 38 349 32 531 28 383 b 61 289 43 328 50 307 b 75 272 65 283 69 276 b 93 265 81 268 86 265 b 121 296 108 265 122 278 z "},"j":{"ha":401,"x_min":0,"x_max":0,"o":"m 358 807 b 353 925 358 824 356 908 b 325 949 350 940 338 949 b 300 931 315 949 304 943 b 301 792 289 899 285 819 b 328 776 307 782 317 776 b 358 807 343 776 358 789 z m 188 -28 b 333 188 267 1 317 113 b 347 404 350 258 350 332 b 339 560 346 457 346 508 b 310 596 346 579 328 596 b 293 592 304 596 299 594 b 271 500 271 579 272 525 b 271 325 269 442 271 383 b 258 179 271 276 269 226 b 143 22 247 129 206 22 b 79 46 121 22 97 32 b 54 68 76 49 58 65 b 40 72 50 71 46 72 b 22 29 21 72 6 46 b 150 -33 57 -6 99 -33 b 188 -28 163 -33 175 -32 z "},"k":{"ha":476,"x_min":0,"x_max":0,"o":"m 168 176 b 142 390 163 204 144 363 b 282 371 188 378 235 379 b 399 347 321 365 360 354 b 419 344 406 346 413 346 b 454 379 442 338 463 357 b 275 438 440 419 310 435 b 178 444 263 439 190 443 b 250 501 200 465 226 483 b 382 642 275 519 382 615 b 353 669 382 660 368 669 b 325 650 342 669 331 664 b 182 526 279 608 231 567 b 133 483 165 513 149 499 b 142 929 124 632 128 781 b 144 946 142 931 144 944 b 115 979 147 965 132 979 b 96 969 108 979 101 976 b 61 825 78 947 65 853 b 56 421 44 690 43 554 b 97 182 64 340 74 260 b 147 129 103 163 124 129 b 168 176 168 129 186 156 z "},"l":{"ha":221,"x_min":0,"x_max":0,"o":"m 171 65 b 140 203 146 106 143 156 b 150 713 133 372 143 542 b 160 911 151 736 160 886 b 154 946 160 917 156 940 b 131 963 150 957 140 963 b 106 946 121 963 111 957 b 92 924 99 940 94 932 b 60 631 79 881 61 675 b 56 353 54 538 53 444 b 68 167 57 290 60 228 b 133 25 76 117 88 56 b 147 21 138 22 143 21 b 171 65 167 21 183 44 z "},"m":{"ha":760,"x_min":0,"x_max":0,"o":"m 125 253 b 260 468 157 279 239 432 b 299 522 265 476 293 515 b 342 450 314 499 324 472 b 407 415 358 431 382 415 b 519 471 446 415 492 447 b 617 549 533 482 600 540 b 621 535 618 543 619 539 b 660 319 636 463 635 388 b 686 275 665 303 675 288 b 710 264 692 267 700 264 b 739 289 722 264 736 272 b 731 339 742 297 733 331 b 704 496 717 390 713 443 b 676 586 699 526 692 558 b 626 618 667 603 647 618 b 583 606 611 618 596 613 b 451 503 564 594 469 514 b 410 483 443 497 421 483 b 388 513 401 485 392 506 b 342 588 374 539 364 568 b 303 603 331 597 317 603 b 272 593 293 603 282 599 b 207 513 243 574 225 542 b 99 322 169 450 142 381 b 107 660 93 367 107 615 b 78 692 107 679 92 692 b 54 674 68 692 58 686 b 26 351 35 622 25 406 b 86 238 28 314 33 238 b 125 253 99 238 114 243 z "},"n":{"ha":531,"x_min":0,"x_max":0,"o":"m 88 239 b 107 269 97 246 101 258 b 217 460 140 335 174 400 b 269 518 232 482 249 503 b 289 526 274 522 283 528 b 340 463 307 522 331 479 b 407 343 363 424 382 381 b 467 263 425 315 444 288 b 488 251 472 256 481 251 b 515 290 506 251 524 269 b 290 604 485 371 394 604 b 257 597 279 604 268 601 b 183 532 226 583 203 558 b 99 390 151 488 125 439 b 103 554 100 444 103 499 b 96 590 103 565 101 579 b 74 603 90 599 82 603 b 42 571 57 603 46 586 b 26 378 38 544 28 404 b 35 242 24 347 15 265 b 63 229 42 233 51 229 b 88 239 71 229 81 232 z "},"o":{"ha":351,"x_min":0,"x_max":0,"o":"m 332 488 b 310 581 338 519 329 556 b 240 622 293 603 267 615 b 178 658 224 646 208 658 b 18 393 90 658 28 461 b 28 314 15 367 15 339 b 90 275 39 290 64 275 b 332 488 175 275 318 399 z m 90 342 b 86 357 88 344 86 353 b 101 436 85 383 93 410 b 158 572 115 483 133 529 b 236 558 183 567 211 567 b 267 492 263 549 275 518 b 135 354 253 442 178 376 b 90 342 125 349 101 336 z "},"p":{"ha":439,"x_min":0,"x_max":0,"o":"m 113 -14 b 125 93 118 1 124 76 b 156 304 132 164 140 235 b 207 313 172 303 190 307 b 376 424 271 332 336 369 b 404 617 415 476 425 556 b 368 665 397 636 383 653 b 332 676 357 674 344 676 b 110 375 224 676 133 457 b 108 374 110 374 108 375 b 121 665 108 415 114 625 b 96 696 124 685 110 696 b 71 679 86 696 76 690 b 47 72 33 582 43 176 b 56 -18 47 56 49 -4 b 83 -35 63 -29 74 -35 b 113 -14 96 -35 108 -28 z m 319 607 b 328 610 322 608 325 610 b 350 564 342 610 347 585 b 325 464 353 531 346 492 b 171 364 289 415 229 381 b 319 607 193 436 251 565 z "},"q":{"ha":436,"x_min":0,"x_max":0,"o":"m 421 -133 b 413 -121 417 -131 415 -125 b 361 94 381 -54 367 21 b 390 640 347 276 367 460 b 394 682 392 649 390 676 b 360 743 411 711 388 743 b 315 689 329 743 322 713 b 297 647 314 682 300 654 b 246 700 282 667 268 689 b 203 711 233 707 218 711 b 46 476 122 711 67 540 b 28 326 31 429 15 375 b 88 281 35 300 60 281 b 153 314 111 281 136 297 b 293 500 211 365 253 433 b 275 201 281 401 275 301 b 376 -169 276 79 281 -78 b 407 -185 385 -178 396 -185 b 421 -133 435 -185 444 -147 z m 101 410 b 207 644 110 444 171 628 b 225 639 211 646 221 642 b 271 592 242 626 256 608 b 94 354 239 535 153 389 b 101 410 93 372 97 392 z "},"r":{"ha":415,"x_min":0,"x_max":0,"o":"m 129 272 b 157 326 144 285 150 307 b 218 490 175 382 193 438 b 285 592 236 526 256 564 b 313 613 294 600 303 607 b 351 618 325 618 339 619 b 376 607 358 610 367 607 b 403 629 389 607 400 614 b 367 676 407 650 388 671 b 328 682 354 681 340 682 b 122 440 213 682 154 532 b 93 653 115 511 107 583 b 79 700 89 669 85 685 b 54 717 75 711 65 717 b 35 707 47 717 40 714 b 26 646 26 697 26 660 b 56 329 29 601 46 374 b 106 264 61 301 69 264 b 129 272 114 264 122 267 z "},"s":{"ha":288,"x_min":0,"x_max":0,"o":"m 263 307 b 269 350 269 319 271 335 b 238 414 265 372 251 394 b 128 544 204 460 161 499 b 104 618 114 564 92 599 b 164 657 118 638 142 647 b 158 624 164 646 161 635 b 185 592 156 604 169 592 b 214 642 208 592 214 622 b 206 693 215 660 214 679 b 163 717 196 711 181 717 b 36 635 115 717 51 681 b 36 565 28 613 29 588 b 88 481 47 533 67 507 b 204 336 108 457 194 365 b 65 319 181 321 94 317 b 57 324 63 319 60 322 b 22 289 36 331 15 310 b 39 271 25 281 32 275 b 106 258 53 261 78 258 b 263 307 147 258 240 263 z "},"t":{"ha":328,"x_min":0,"x_max":0,"o":"m 214 194 b 171 456 181 304 175 340 b 290 479 211 458 253 464 b 282 533 319 490 313 533 b 171 518 267 533 186 521 l 175 676 b 183 922 179 758 186 840 b 158 947 183 939 171 947 b 125 886 132 947 126 907 b 96 507 107 761 96 633 b 24 489 79 506 35 501 b 35 447 13 475 18 454 b 49 446 38 446 43 446 b 96 450 65 446 89 449 b 135 238 99 378 110 304 b 172 164 140 224 161 174 b 190 157 178 160 183 157 b 214 194 207 157 221 175 z "},"u":{"ha":422,"x_min":0,"x_max":0,"o":"m 392 299 b 383 353 415 313 410 349 b 376 358 378 354 379 353 b 351 496 354 399 351 449 b 367 683 353 558 361 621 b 361 703 368 690 365 697 b 336 715 354 711 346 715 b 303 690 322 715 308 706 b 236 481 283 619 263 549 b 160 360 229 461 188 360 b 142 372 154 360 146 368 b 108 443 126 393 117 418 b 97 624 89 500 89 564 b 101 635 99 628 101 631 b 101 649 103 639 101 644 b 104 667 101 654 104 661 b 74 700 107 686 90 700 b 57 696 68 700 63 699 b 24 568 29 679 25 601 b 88 339 18 489 42 404 b 154 299 103 318 126 299 b 281 432 219 299 258 382 b 361 294 286 379 308 300 b 392 299 372 294 383 294 z "},"v":{"ha":321,"x_min":0,"x_max":0,"o":"m 236 325 b 285 483 258 376 272 429 b 281 689 296 533 314 651 b 260 699 275 696 268 699 b 235 682 249 699 239 693 b 233 644 232 676 233 651 b 203 422 239 571 224 494 b 169 336 194 392 185 363 b 119 464 146 375 133 421 b 83 611 104 513 99 564 b 49 640 78 629 63 640 b 28 626 40 640 33 636 b 21 593 24 621 21 600 b 24 581 21 592 24 582 b 132 269 31 496 54 322 b 164 260 143 264 153 260 b 236 325 200 260 225 294 z "},"w":{"ha":643,"x_min":0,"x_max":0,"o":"m 508 314 b 571 375 535 328 554 351 b 619 542 604 422 621 485 b 544 733 618 579 597 733 b 519 690 525 733 508 711 b 525 676 521 686 524 681 b 556 549 540 636 553 593 b 535 443 557 514 551 476 b 463 369 524 419 494 369 b 408 428 439 369 419 400 b 356 575 389 475 379 528 b 297 614 344 599 321 614 b 267 606 286 614 276 611 b 203 531 239 589 221 558 b 100 392 188 507 121 408 b 96 447 96 410 96 429 b 117 656 97 517 103 588 b 147 693 140 650 157 672 b 128 721 144 699 132 717 b 107 729 122 726 115 729 b 33 569 63 729 39 603 b 57 332 22 506 7 372 b 104 321 69 322 89 318 b 169 367 129 328 151 347 b 290 524 214 415 247 474 b 347 382 310 476 325 426 b 457 301 368 340 408 301 b 508 314 475 300 493 306 z "},"x":{"ha":428,"x_min":0,"x_max":0,"o":"m 65 183 b 79 199 68 186 78 196 b 206 360 121 253 164 307 b 321 267 224 340 297 267 b 346 308 342 267 357 289 b 314 344 343 315 319 339 b 250 417 306 353 258 407 b 375 565 268 439 353 547 b 408 583 385 574 400 574 b 393 625 421 599 413 622 b 328 597 376 629 340 610 b 211 465 285 558 249 511 b 97 608 194 488 118 592 b 57 621 86 618 71 624 b 54 571 29 617 28 581 b 113 485 64 560 104 497 b 165 410 119 475 158 419 b 68 289 132 369 100 329 b 15 213 58 275 18 229 b 46 176 13 192 29 176 b 65 183 53 176 60 179 z "},"y":{"ha":392,"x_min":0,"x_max":0,"o":"m 363 -124 b 335 114 339 -47 335 35 b 354 522 333 250 342 386 l 354 539 b 356 574 357 550 360 563 b 318 600 350 590 333 600 b 283 579 304 600 292 593 b 274 519 272 563 276 540 b 265 490 272 515 267 494 b 131 250 247 432 181 289 b 110 318 119 271 115 294 b 100 499 99 378 94 439 b 115 585 101 510 115 572 b 88 613 115 600 101 613 b 74 608 83 613 78 611 b 36 518 54 597 42 540 b 50 257 19 432 24 339 b 90 190 58 232 69 206 b 129 178 101 182 115 176 b 258 317 183 178 236 274 b 256 164 257 265 256 215 b 325 -165 256 85 264 -114 b 343 -172 331 -171 338 -172 b 363 -124 365 -172 383 -144 z "},"z":{"ha":350,"x_min":0,"x_max":0,"o":"m 308 303 b 308 360 340 308 340 354 b 282 367 306 361 286 365 b 226 371 264 369 244 371 b 113 367 189 371 150 367 b 254 503 157 415 208 456 b 288 633 290 540 324 597 b 196 669 264 657 228 665 b 83 674 158 674 121 674 b 54 682 76 682 65 686 b 25 661 43 678 31 672 b 43 619 15 644 25 625 b 183 596 61 613 164 600 b 224 586 197 594 211 592 b 175 529 211 565 193 547 b 25 374 150 504 39 406 b 17 336 19 363 15 349 b 46 297 19 319 31 304 b 115 285 67 286 92 285 b 308 303 143 285 282 299 z "},"~":{"ha":631,"x_min":0,"x_max":0,"o":"m 89 464 b 242 624 110 486 219 606 b 315 568 253 617 306 576 b 415 501 347 544 381 521 b 492 476 439 489 465 476 b 551 497 514 476 535 483 b 589 625 583 524 607 586 b 572 651 586 629 576 647 b 556 657 567 656 561 657 b 528 626 539 657 525 643 b 536 606 529 618 535 613 b 519 556 536 594 526 565 b 496 542 515 549 507 543 b 386 601 467 542 408 585 b 288 681 353 628 322 657 b 253 697 276 688 265 694 b 243 699 250 697 246 699 b 207 688 231 699 218 694 b 43 507 174 667 68 539 l 42 506 b 57 454 21 490 32 454 b 89 464 68 454 81 457 z "}," ":{"ha":417,"x_min":0,"x_max":0,"o":""},"¡":{"ha":242,"x_min":0,"x_max":0,"o":"m 175 -250 b 186 -199 199 -243 206 -215 b 176 -54 182 -178 178 -75 b 165 147 176 -29 165 122 b 171 476 161 257 165 367 b 161 567 172 506 172 538 b 135 585 157 578 146 585 b 117 578 129 585 122 583 b 94 543 106 569 99 557 b 78 436 86 508 82 472 b 89 -58 60 272 68 106 b 125 -207 92 -83 115 -186 b 175 -250 133 -228 153 -256 z m 151 835 b 151 882 154 843 151 874 b 143 988 150 904 157 971 l 139 992 b 119 1001 133 999 126 1001 b 94 985 108 1001 99 996 b 79 872 89 967 79 890 b 100 821 78 854 86 833 b 121 814 106 815 114 814 b 151 835 133 814 147 821 z "},"¨":{"ha":311,"x_min":0,"x_max":0,"o":"m 110 675 b 104 726 135 685 131 721 b 51 729 97 728 58 729 b 32 682 25 729 13 699 b 58 674 39 676 49 674 b 110 675 67 674 101 672 z m 251 651 b 276 664 256 653 274 663 b 258 713 301 679 288 718 b 243 707 257 713 246 707 b 217 676 226 707 217 692 b 251 651 217 658 235 644 z "},"«":{"ha":594,"x_min":0,"x_max":0,"o":"m 310 333 b 246 374 301 346 260 367 b 115 468 211 390 125 431 b 196 600 104 510 163 572 b 278 643 219 619 247 638 b 347 647 286 646 338 646 b 347 699 375 651 375 693 b 319 699 338 700 328 697 b 267 706 301 703 285 708 b 56 535 175 699 90 615 b 50 440 43 506 39 471 b 119 364 61 408 90 383 b 279 289 143 349 251 294 b 310 333 304 283 322 310 z m 535 431 b 349 493 506 439 375 479 b 476 560 372 521 440 564 b 494 556 482 560 489 557 b 508 606 526 550 538 593 b 454 611 492 611 472 614 b 313 543 411 607 343 574 b 285 500 300 532 289 517 b 290 467 283 489 285 476 b 481 389 314 425 435 400 b 526 379 488 388 519 379 b 535 431 557 379 564 422 z "},"­":{"ha":0,"x_min":0,"x_max":0,"o":""},"¯":{"ha":329,"x_min":0,"x_max":0,"o":"m 81 678 b 285 722 149 690 217 706 b 274 774 319 731 310 781 b 53 728 200 758 126 740 b 38 722 47 728 42 726 b 50 674 14 708 22 674 b 81 678 54 674 75 678 z "},"´":{"ha":229,"x_min":0,"x_max":0,"o":"m 75 653 b 163 732 99 685 131 708 b 197 757 168 736 193 751 b 178 799 213 775 197 799 b 32 682 153 799 49 715 b 56 642 19 663 38 642 b 75 653 63 642 69 646 z "},"¸":{"ha":108,"x_min":0,"x_max":0,"o":"m 51 -294 b 138 -239 81 -276 110 -258 b 200 -176 161 -221 188 -203 b 186 -96 214 -147 210 -118 b 114 -68 167 -79 139 -71 b 39 -65 89 -65 64 -65 b 83 0 44 -54 74 -8 b 67 44 106 18 88 44 b -19 -64 38 44 -12 -43 b -14 -103 -24 -76 -24 -93 b 15 -117 -7 -111 4 -115 b 133 -126 54 -121 96 -114 b 154 -143 139 -129 153 -136 b 146 -162 156 -149 149 -158 b 26 -250 113 -200 68 -224 b 36 -299 1 -267 14 -299 b 51 -294 42 -299 46 -297 z "},"»":{"ha":658,"x_min":0,"x_max":0,"o":"m 426 279 b 614 474 507 314 614 372 b 572 572 614 510 594 544 b 461 674 558 589 482 674 b 435 642 444 674 431 658 b 464 601 439 625 453 613 b 531 524 488 576 511 551 b 549 489 538 514 544 501 b 546 447 553 475 550 460 b 483 378 533 418 510 394 b 367 318 447 354 406 338 b 347 307 364 317 350 310 b 365 258 328 290 340 258 b 426 279 376 258 417 275 z m 243 392 b 310 475 271 413 301 440 b 301 519 313 489 310 506 b 260 557 292 535 276 547 b 147 601 225 576 186 589 b 131 631 149 615 143 626 b 81 639 119 635 99 639 b 51 633 68 639 58 638 b 64 568 26 618 38 582 b 247 492 90 554 225 510 b 239 467 256 485 244 475 b 206 436 229 456 217 446 b 107 361 174 411 139 388 b 122 314 86 344 99 314 b 243 392 144 314 224 375 z "},"¿":{"ha":360,"x_min":0,"x_max":0,"o":"m 228 538 b 229 636 238 554 231 617 b 179 715 226 664 215 715 b 146 693 165 715 151 707 b 160 593 140 675 157 611 b 168 550 163 579 164 564 b 203 522 174 532 188 522 b 228 538 213 522 222 526 z m 379 -264 b 403 -200 396 -249 414 -219 b 381 -187 397 -192 389 -187 b 354 -208 368 -187 357 -194 b 350 -221 353 -212 353 -218 b 124 -279 319 -261 175 -279 b -18 -219 88 -279 -12 -264 b 7 -164 -19 -206 -1 -175 b 286 147 90 -53 208 31 b 313 224 300 169 311 196 b 161 360 313 300 224 339 b 151 361 157 361 154 361 b 129 315 128 361 114 335 b 175 286 135 308 168 290 b 229 228 193 274 231 249 b 100 65 226 182 133 96 b -74 -118 38 8 -25 -49 b -110 -215 -93 -146 -110 -181 b 97 -361 -110 -321 10 -361 b 379 -264 188 -361 314 -324 z "},"À":{"ha":582,"x_min":0,"x_max":0,"o":"m 483 1135 b 446 1163 479 1139 451 1158 b 375 1218 436 1171 386 1213 b 360 1222 369 1221 365 1222 b 346 1174 336 1222 321 1189 b 350 1172 347 1174 349 1174 b 463 1089 368 1153 436 1089 b 483 1135 485 1089 500 1114 z m 72 -44 b 78 25 74 -22 75 1 b 136 324 92 125 114 224 b 381 326 218 321 299 319 b 414 129 383 289 393 160 b 422 108 417 126 421 111 b 446 94 428 99 438 94 b 474 122 460 94 474 106 b 472 144 474 131 471 138 b 469 199 475 153 469 190 b 460 333 469 215 461 315 b 543 349 475 335 531 340 b 533 403 567 363 561 399 b 456 396 521 406 468 397 b 449 644 451 478 449 561 b 432 933 447 692 450 889 b 381 974 422 956 406 974 b 267 863 333 974 293 907 b 96 375 181 714 135 543 b 61 375 83 376 72 379 b 65 326 36 367 39 331 b 83 325 68 325 81 325 b 21 -40 57 204 28 83 b 47 -68 19 -58 33 -68 b 72 -44 60 -68 71 -60 z m 331 863 b 372 908 338 872 363 903 b 379 811 379 893 379 828 b 372 628 379 788 374 650 b 376 386 369 547 371 467 b 149 375 300 379 224 375 b 331 863 189 539 235 721 z "},"Á":{"ha":582,"x_min":0,"x_max":0,"o":"m 379 1068 b 472 1133 393 1076 457 1128 b 482 1133 474 1135 479 1133 b 503 1144 490 1133 499 1138 b 468 1186 518 1165 494 1190 b 343 1104 442 1181 353 1124 b 365 1064 332 1085 347 1064 b 379 1068 369 1064 375 1065 z m 72 -44 b 78 25 74 -22 75 1 b 136 324 92 125 114 224 b 381 326 218 321 299 319 b 414 129 383 289 393 160 b 422 108 417 126 421 111 b 446 94 428 99 438 94 b 474 122 460 94 474 106 b 472 144 474 131 471 138 b 469 199 475 153 469 190 b 460 333 469 215 461 315 b 543 349 475 335 531 340 b 533 403 567 363 561 399 b 456 396 521 406 468 397 b 449 644 451 478 449 561 b 432 933 447 692 450 889 b 381 974 422 956 406 974 b 267 863 333 974 293 907 b 96 375 181 714 135 543 b 61 375 83 376 72 379 b 65 326 36 367 39 331 b 83 325 68 325 81 325 b 21 -40 57 204 28 83 b 47 -68 19 -58 33 -68 b 72 -44 60 -68 71 -60 z m 331 863 b 372 908 338 872 363 903 b 379 811 379 893 379 828 b 372 628 379 788 374 650 b 376 386 369 547 371 467 b 149 375 300 379 224 375 b 331 863 189 539 235 721 z "},"Â":{"ha":583,"x_min":0,"x_max":0,"o":"m 521 1064 b 444 1169 514 1086 461 1154 b 411 1183 433 1179 422 1183 b 278 1104 385 1183 292 1121 b 294 1061 265 1089 274 1063 b 325 1060 300 1061 319 1058 b 346 1086 338 1063 346 1072 b 408 1122 367 1099 388 1111 b 476 1032 418 1110 464 1043 b 494 1025 482 1028 489 1025 b 521 1064 513 1025 529 1043 z m 72 -44 b 78 25 74 -22 75 1 b 136 324 92 125 114 224 b 381 326 218 321 299 319 b 414 129 383 289 393 160 b 422 108 417 126 421 111 b 446 94 428 99 438 94 b 474 122 460 94 474 106 b 472 144 474 131 471 138 b 469 199 475 153 469 190 b 460 333 469 215 461 315 b 543 349 475 335 531 340 b 533 403 567 363 561 399 b 456 396 521 406 468 397 b 449 644 451 478 449 561 b 432 933 447 692 450 889 b 381 974 422 956 406 974 b 267 863 333 974 293 907 b 96 375 181 714 135 543 b 61 375 83 376 72 379 b 65 326 36 367 39 331 b 83 325 68 325 81 325 b 21 -40 57 204 28 83 b 47 -68 19 -58 33 -68 b 72 -44 60 -68 71 -60 z m 331 863 b 372 908 338 872 363 903 b 379 811 379 893 379 828 b 372 628 379 788 374 650 b 376 386 369 547 371 467 b 149 375 300 379 224 375 b 331 863 189 539 235 721 z "},"Ã":{"ha":582,"x_min":0,"x_max":0,"o":"m 465 1040 b 506 1115 485 1051 506 1092 b 479 1142 506 1132 492 1142 b 456 1128 469 1142 461 1138 b 440 1092 450 1117 447 1103 b 379 1140 431 1097 388 1133 b 340 1158 368 1150 356 1157 b 308 1153 331 1160 318 1157 b 251 1088 290 1143 256 1108 b 288 1050 247 1065 265 1050 b 313 1082 304 1050 317 1065 b 333 1099 319 1089 326 1094 b 433 1035 368 1079 394 1040 b 465 1040 444 1033 456 1035 z m 72 -44 b 78 25 74 -22 75 1 b 136 324 92 125 114 224 b 381 326 218 321 299 319 b 414 129 383 289 393 160 b 422 108 417 126 421 111 b 446 94 428 99 438 94 b 474 122 460 94 474 106 b 472 144 474 131 471 138 b 469 199 475 153 469 190 b 460 333 469 215 461 315 b 543 349 475 335 531 340 b 533 403 567 363 561 399 b 456 396 521 406 468 397 b 449 644 451 478 449 561 b 432 933 447 692 450 889 b 381 974 422 956 406 974 b 267 863 333 974 293 907 b 96 375 181 714 135 543 b 61 375 83 376 72 379 b 65 326 36 367 39 331 b 83 325 68 325 81 325 b 21 -40 57 204 28 83 b 47 -68 19 -58 33 -68 b 72 -44 60 -68 71 -60 z m 331 863 b 372 908 338 872 363 903 b 379 811 379 893 379 828 b 372 628 379 788 374 650 b 376 386 369 547 371 467 b 149 375 300 379 224 375 b 331 863 189 539 235 721 z "},"Ä":{"ha":582,"x_min":0,"x_max":0,"o":"m 515 1069 b 519 1074 515 1071 518 1072 b 499 1117 533 1092 521 1117 b 467 1075 478 1117 460 1093 b 493 1057 471 1064 482 1057 b 515 1069 501 1057 510 1060 z m 340 1086 b 326 1103 336 1092 332 1099 b 314 1106 322 1106 318 1106 b 286 1079 301 1106 289 1094 b 317 1047 283 1061 299 1047 b 340 1086 338 1047 350 1068 z m 72 -44 b 78 25 74 -22 75 1 b 136 324 92 125 114 224 b 381 326 218 321 299 319 b 414 129 383 289 393 160 b 422 108 417 126 421 111 b 446 94 428 99 438 94 b 474 122 460 94 474 106 b 472 144 474 131 471 138 b 469 199 475 153 469 190 b 460 333 469 215 461 315 b 543 349 475 335 531 340 b 533 403 567 363 561 399 b 456 396 521 406 468 397 b 449 644 451 478 449 561 b 432 933 447 692 450 889 b 381 974 422 956 406 974 b 267 863 333 974 293 907 b 96 375 181 714 135 543 b 61 375 83 376 72 379 b 65 326 36 367 39 331 b 83 325 68 325 81 325 b 21 -40 57 204 28 83 b 47 -68 19 -58 33 -68 b 72 -44 60 -68 71 -60 z m 331 863 b 372 908 338 872 363 903 b 379 811 379 893 379 828 b 372 628 379 788 374 650 b 376 386 369 547 371 467 b 149 375 300 379 224 375 b 331 863 189 539 235 721 z "},"Å":{"ha":583,"x_min":0,"x_max":0,"o":"m 72 -44 b 78 25 74 -22 75 1 b 136 324 92 125 114 224 b 381 326 218 321 299 319 b 414 129 383 289 393 160 b 422 108 417 126 421 111 b 446 94 428 99 438 94 b 474 122 460 94 474 106 b 472 144 474 131 471 138 b 469 199 475 153 469 190 b 460 333 469 215 461 315 b 543 349 475 335 531 340 b 533 403 567 363 561 399 b 456 396 521 406 468 397 b 447 726 450 506 449 615 b 442 883 447 778 447 831 b 428 943 440 903 436 924 b 468 972 443 947 458 958 b 478 1110 488 1003 494 1076 b 429 1140 469 1126 449 1138 b 399 1118 415 1142 401 1132 b 367 1128 389 1122 378 1128 b 325 1101 349 1128 332 1118 b 326 992 308 1068 308 1024 b 349 965 332 982 339 972 b 340 958 350 964 343 960 b 96 375 215 850 132 529 b 61 375 83 376 72 379 b 65 326 36 367 39 331 b 83 325 68 325 81 325 b 21 -40 57 204 28 83 b 47 -68 19 -58 33 -68 b 72 -44 60 -68 71 -60 z m 410 997 b 372 1031 393 999 376 1013 b 374 1074 368 1043 371 1058 b 386 1068 378 1071 382 1069 b 422 1088 401 1061 419 1071 b 431 1086 422 1090 429 1089 b 431 1026 438 1075 433 1039 b 410 997 428 1013 424 994 z m 331 863 b 372 908 338 872 363 903 b 379 811 379 893 379 828 b 372 628 379 788 374 650 b 376 386 369 547 371 467 b 149 375 300 379 224 375 b 331 863 189 539 235 721 z "},"Æ":{"ha":871,"x_min":0,"x_max":0,"o":"m 68 68 b 88 140 74 79 85 129 b 158 422 110 235 132 329 b 193 415 168 415 181 414 b 374 439 215 418 351 435 b 381 206 372 361 372 282 b 488 60 389 142 406 60 b 756 214 565 60 701 165 b 844 338 793 247 824 292 b 819 375 853 357 838 375 b 790 353 806 375 796 365 b 556 154 756 279 624 192 b 479 129 539 144 496 124 b 458 176 465 135 461 163 b 456 450 446 267 453 360 b 744 511 553 464 650 486 b 729 565 779 521 764 571 b 458 515 696 560 490 522 b 453 818 460 617 463 718 b 446 874 451 838 450 856 b 771 913 554 885 663 894 b 767 965 804 917 800 964 b 693 961 757 965 703 963 b 428 928 604 954 517 939 b 364 975 417 953 394 975 b 251 869 319 975 279 919 b 140 586 203 781 171 683 b 25 113 93 431 58 271 b 19 78 24 106 18 83 b 46 56 22 64 33 56 b 68 68 54 56 63 60 z m 171 468 b 250 714 194 551 219 633 b 358 901 264 751 319 886 b 376 782 368 883 375 804 b 374 501 378 689 376 594 b 171 468 307 489 239 475 z "},"Ç":{"ha":679,"x_min":0,"x_max":0,"o":"m 249 -331 b 371 -231 285 -319 356 -264 b 357 -171 381 -210 375 -187 b 290 -125 349 -162 297 -135 b 286 -86 282 -115 285 -99 b 299 -39 289 -71 294 -54 b 631 240 454 -39 567 115 b 661 340 646 271 663 306 b 633 367 660 356 646 367 b 617 361 628 367 621 365 b 604 322 606 351 607 335 b 556 233 599 307 564 246 b 311 38 504 153 418 38 b 142 181 235 38 165 100 b 131 349 125 235 124 293 b 403 914 150 525 258 797 b 433 936 413 922 422 931 b 421 700 456 889 438 749 b 414 686 419 697 417 688 b 432 638 389 671 403 633 b 451 646 439 639 446 642 b 497 782 475 665 493 751 b 504 919 504 828 510 874 b 436 1007 499 958 483 1007 b 335 954 403 1007 363 982 b 42 353 182 808 67 564 b 49 183 36 296 33 238 b 236 -29 75 88 136 -1 b 225 -118 226 -58 219 -89 b 257 -174 229 -139 240 -160 b 315 -211 275 -189 297 -197 b 235 -276 306 -225 249 -267 b 221 -324 211 -281 203 -307 b 249 -331 228 -331 238 -333 z "},"È":{"ha":635,"x_min":0,"x_max":0,"o":"m 490 1115 b 451 1129 478 1121 464 1124 b 417 1149 446 1132 421 1146 b 389 1175 413 1151 393 1174 b 375 1179 385 1178 379 1179 b 350 1149 360 1179 347 1165 b 482 1065 358 1114 447 1065 b 490 1115 510 1065 519 1104 z m 367 32 b 610 171 465 57 542 97 b 586 217 629 190 611 222 b 563 203 576 215 569 208 b 286 88 493 143 381 88 b 249 92 274 88 261 89 b 156 233 183 113 168 174 b 147 411 146 292 146 351 b 436 460 244 424 343 432 b 424 514 471 469 458 519 b 151 467 389 510 185 474 b 278 913 157 550 185 885 b 297 915 285 914 290 915 b 486 872 339 915 451 885 b 540 846 496 868 531 846 b 553 894 567 846 575 881 b 293 974 493 935 369 974 b 149 844 213 974 174 917 b 75 454 101 721 83 586 b 47 449 65 453 56 453 b 61 400 25 435 35 400 b 72 400 64 400 72 403 b 86 207 71 336 74 271 b 251 25 104 124 158 33 b 367 32 290 19 331 24 z "},"É":{"ha":635,"x_min":0,"x_max":0,"o":"m 367 32 b 610 171 465 57 542 97 b 586 217 629 190 611 222 b 563 203 576 215 569 208 b 286 88 493 143 381 88 b 249 92 274 88 261 89 b 156 233 183 113 168 174 b 147 411 146 292 146 351 b 436 460 244 424 343 432 b 424 514 471 469 458 519 b 151 467 389 510 185 474 b 278 913 157 550 185 885 b 297 915 285 914 290 915 b 486 872 339 915 451 885 b 540 846 496 868 531 846 b 553 894 567 846 575 881 b 293 974 493 935 369 974 b 149 844 213 974 174 917 b 75 454 101 721 83 586 b 47 449 65 453 56 453 b 61 400 25 435 35 400 b 72 400 64 400 72 403 b 86 207 71 336 74 271 b 251 25 104 124 158 33 b 367 32 290 19 331 24 z m 475 1150 b 454 1196 496 1167 481 1200 l 442 1192 b 336 1119 424 1183 351 1133 b 351 1072 315 1101 331 1072 b 475 1150 368 1072 460 1138 z "},"Ê":{"ha":635,"x_min":0,"x_max":0,"o":"m 574 1044 b 564 1100 576 1054 567 1090 b 532 1167 557 1124 549 1149 b 486 1190 521 1181 503 1190 b 414 1163 461 1192 436 1178 b 371 1135 407 1158 381 1136 b 385 1082 333 1128 347 1075 b 449 1117 397 1085 439 1111 b 488 1132 457 1122 478 1136 b 496 1121 490 1131 494 1124 b 524 1040 508 1096 513 1067 b 549 1024 528 1029 539 1024 b 574 1044 560 1024 571 1031 z m 367 32 b 610 171 465 57 542 97 b 586 217 629 190 611 222 b 563 203 576 215 569 208 b 286 88 493 143 381 88 b 249 92 274 88 261 89 b 156 233 183 113 168 174 b 147 411 146 292 146 351 b 436 460 244 424 343 432 b 424 514 471 469 458 519 b 151 467 389 510 185 474 b 278 913 157 550 185 885 b 297 915 285 914 290 915 b 486 872 339 915 451 885 b 540 846 496 868 531 846 b 553 894 567 846 575 881 b 293 974 493 935 369 974 b 149 844 213 974 174 917 b 75 454 101 721 83 586 b 47 449 65 453 56 453 b 61 400 25 435 35 400 b 72 400 64 400 72 403 b 86 207 71 336 74 271 b 251 25 104 124 158 33 b 367 32 290 19 331 24 z "},"Ë":{"ha":635,"x_min":0,"x_max":0,"o":"m 339 1090 b 365 1143 364 1097 382 1122 b 339 1172 367 1161 353 1172 b 314 1143 324 1172 314 1157 b 308 1132 313 1142 308 1133 b 339 1090 300 1110 317 1085 z m 522 1097 b 518 1151 540 1113 540 1143 b 515 1153 517 1151 515 1153 b 503 1156 511 1156 507 1156 b 475 1115 485 1156 471 1136 b 504 1090 476 1100 490 1090 b 522 1097 510 1090 517 1093 z m 367 32 b 610 171 465 57 542 97 b 586 217 629 190 611 222 b 563 203 576 215 569 208 b 286 88 493 143 381 88 b 249 92 274 88 261 89 b 156 233 183 113 168 174 b 147 411 146 292 146 351 b 436 460 244 424 343 432 b 424 514 471 469 458 519 b 151 467 389 510 185 474 b 278 913 157 550 185 885 b 297 915 285 914 290 915 b 486 872 339 915 451 885 b 540 846 496 868 531 846 b 553 894 567 846 575 881 b 293 974 493 935 369 974 b 149 844 213 974 174 917 b 75 454 101 721 83 586 b 47 449 65 453 56 453 b 61 400 25 435 35 400 b 72 400 64 400 72 403 b 86 207 71 336 74 271 b 251 25 104 124 158 33 b 367 32 290 19 331 24 z "},"Ì":{"ha":374,"x_min":0,"x_max":0,"o":"m 344 18 b 329 72 369 32 360 72 b 296 67 325 72 301 68 b 224 63 286 65 233 63 b 215 81 221 68 218 74 b 200 217 200 107 200 186 b 215 679 200 274 214 622 b 213 901 215 714 222 868 b 315 908 229 901 300 903 b 315 961 339 917 339 951 b 267 964 307 964 275 963 b 128 964 221 964 175 963 l 99 964 b 94 910 69 958 67 919 b 154 901 103 907 146 903 b 133 729 149 878 136 754 b 119 415 126 625 121 521 b 128 165 118 332 117 249 b 158 60 133 129 140 92 b 97 58 150 60 104 58 b 68 60 90 58 74 57 b 51 67 63 64 57 67 b 33 19 32 67 17 40 b 126 0 47 3 104 0 b 344 18 168 -3 307 -3 z m 304 1154 b 201 1194 290 1161 215 1189 b 171 1214 194 1207 182 1214 b 146 1192 158 1214 149 1207 b 149 1165 144 1183 144 1172 b 290 1101 165 1139 258 1101 b 304 1154 318 1101 331 1139 z "},"Í":{"ha":375,"x_min":0,"x_max":0,"o":"m 344 18 b 329 72 369 32 360 72 b 296 67 325 72 301 68 b 224 63 286 65 233 63 b 215 81 221 68 218 74 b 200 217 200 107 200 186 b 215 679 200 274 214 622 b 213 901 215 714 222 868 b 315 908 229 901 300 903 b 315 961 339 917 339 951 b 267 964 307 964 275 963 b 128 964 221 964 175 963 l 99 964 b 94 910 69 958 67 919 b 154 901 103 907 146 903 b 133 729 149 878 136 754 b 119 415 126 625 121 521 b 128 165 118 332 117 249 b 158 60 133 129 140 92 b 97 58 150 60 104 58 b 68 60 90 58 74 57 b 51 67 63 64 57 67 b 33 19 32 67 17 40 b 126 0 47 3 104 0 b 344 18 168 -3 307 -3 z m 231 1074 b 342 1146 247 1081 325 1139 b 368 1153 350 1150 360 1150 b 364 1203 400 1157 396 1203 b 286 1178 336 1204 310 1192 b 200 1117 271 1169 211 1131 b 231 1074 183 1096 204 1065 z "},"Î":{"ha":374,"x_min":0,"x_max":0,"o":"m 344 18 b 329 72 369 32 360 72 b 296 67 325 72 301 68 b 224 63 286 65 233 63 b 215 81 221 68 218 74 b 200 217 200 107 200 186 b 215 679 200 274 214 622 b 213 901 215 714 222 868 b 315 908 229 901 300 903 b 315 961 339 917 339 951 b 267 964 307 964 275 963 b 128 964 221 964 175 963 l 99 964 b 94 910 69 958 67 919 b 154 901 103 907 146 903 b 133 729 149 878 136 754 b 119 415 126 625 121 521 b 128 165 118 332 117 249 b 158 60 133 129 140 92 b 97 58 150 60 104 58 b 68 60 90 58 74 57 b 51 67 63 64 57 67 b 33 19 32 67 17 40 b 126 0 47 3 104 0 b 344 18 168 -3 307 -3 z m 344 1118 b 276 1210 335 1146 300 1196 b 238 1222 265 1218 251 1222 b 183 1206 218 1224 200 1215 b 111 1151 158 1189 138 1165 b 83 1142 103 1146 90 1147 b 83 1101 71 1131 71 1113 b 103 1096 88 1097 94 1096 b 146 1107 118 1096 135 1101 b 217 1154 171 1121 192 1142 b 240 1163 222 1157 235 1164 b 297 1090 258 1158 285 1104 b 318 1081 303 1083 310 1081 b 344 1118 335 1081 353 1097 z "},"Ï":{"ha":374,"x_min":0,"x_max":0,"o":"m 344 18 b 329 72 369 32 360 72 b 296 67 325 72 301 68 b 224 63 286 65 233 63 b 215 81 221 68 218 74 b 200 217 200 107 200 186 b 215 679 200 274 214 622 b 213 901 215 714 222 868 b 315 908 229 901 300 903 b 315 961 339 917 339 951 b 267 964 307 964 275 963 b 128 964 221 964 175 963 l 99 964 b 94 910 69 958 67 919 b 154 901 103 907 146 903 b 133 729 149 878 136 754 b 119 415 126 625 121 521 b 128 165 118 332 117 249 b 158 60 133 129 140 92 b 97 58 150 60 104 58 b 68 60 90 58 74 57 b 51 67 63 64 57 67 b 33 19 32 67 17 40 b 126 0 47 3 104 0 b 344 18 168 -3 307 -3 z m 181 1106 b 163 1157 207 1122 193 1161 b 129 1143 150 1154 138 1151 b 131 1092 113 1129 111 1103 b 142 1086 133 1090 138 1088 b 154 1082 146 1083 150 1082 b 181 1106 167 1082 179 1092 z m 343 1099 b 363 1138 361 1101 371 1121 b 360 1144 361 1140 361 1142 b 333 1167 358 1157 346 1167 b 321 1163 329 1167 325 1165 b 293 1132 313 1158 296 1140 b 319 1094 286 1114 300 1094 b 343 1099 322 1094 340 1099 z "},"Ð":{"ha":794,"x_min":0,"x_max":0,"o":"m 285 -43 b 275 32 285 -33 276 22 b 765 614 465 143 761 367 b 582 897 765 733 688 844 b 390 942 525 928 457 942 b 50 839 282 942 143 894 b 28 815 40 833 32 825 b 51 774 22 797 35 779 b 117 764 68 768 99 764 b 132 810 140 764 153 793 b 218 839 161 821 189 831 b 175 525 197 736 183 631 b 117 522 156 524 136 524 b 99 529 111 528 104 529 b 82 478 76 529 58 497 b 169 467 96 465 151 467 b 194 63 161 332 168 194 b 122 42 172 51 147 38 b 117 42 121 42 118 42 b 107 -11 88 42 76 0 b 142 -17 118 -15 131 -17 b 210 -3 165 -17 189 -11 b 257 -71 215 -22 231 -71 b 285 -43 271 -71 285 -60 z m 260 475 b 368 506 281 478 353 492 b 350 554 388 522 376 554 b 264 538 338 554 276 540 b 289 856 267 581 290 814 b 376 864 317 861 347 864 b 618 774 463 864 557 835 b 689 600 663 729 693 663 b 268 107 675 397 426 214 b 260 475 260 229 253 353 z "},"Ñ":{"ha":678,"x_min":0,"x_max":0,"o":"m 126 -3 b 129 61 131 7 129 50 b 138 440 133 188 135 314 b 167 782 140 554 143 671 b 225 592 192 721 210 656 b 379 74 246 510 338 146 b 415 22 390 56 400 36 b 464 0 428 10 446 0 b 558 119 513 0 546 81 b 615 575 607 265 615 422 b 600 842 615 664 610 754 b 575 918 597 868 596 901 b 557 925 569 924 563 925 b 525 879 538 925 519 903 b 539 758 532 839 536 799 b 540 376 549 632 550 504 b 467 82 533 290 514 158 b 404 268 454 107 411 240 b 308 626 369 386 344 508 b 181 890 292 681 236 868 b 164 893 175 893 169 893 b 122 868 147 893 132 885 b 72 511 85 792 74 593 b 76 60 69 361 71 210 l 76 8 b 103 -19 76 -10 90 -19 b 126 -3 113 -19 122 -14 z m 279 1068 b 313 1111 288 1085 297 1103 b 349 1099 322 1117 339 1104 b 397 1068 364 1088 379 1075 b 431 1067 407 1064 419 1063 b 458 1092 442 1071 451 1081 b 474 1146 467 1107 471 1126 b 449 1176 478 1164 463 1176 b 426 1163 440 1176 432 1172 b 413 1119 424 1158 415 1125 b 328 1165 385 1136 360 1163 b 283 1156 313 1167 296 1164 b 228 1061 257 1138 222 1092 b 256 1035 231 1043 244 1035 b 279 1068 271 1035 285 1047 z "},"Ò":{"ha":731,"x_min":0,"x_max":0,"o":"m 340 1089 b 340 1136 363 1097 363 1129 b 319 1139 333 1139 326 1138 b 278 1146 306 1139 292 1142 b 254 1153 275 1146 257 1153 b 242 1103 222 1158 211 1113 b 325 1088 271 1094 294 1088 b 340 1089 332 1088 338 1088 z m 660 315 b 688 557 682 393 693 476 b 503 815 682 671 639 815 b 307 714 431 815 354 764 b 289 694 304 711 290 697 b 313 653 278 676 292 653 b 374 693 328 653 361 685 b 501 750 408 718 457 750 b 547 740 517 750 533 747 b 633 511 618 699 633 585 b 322 67 631 336 533 67 b 149 258 213 67 164 164 b 171 604 128 372 139 494 b 367 882 203 711 261 833 b 444 903 390 893 418 899 b 453 901 447 903 451 904 b 476 883 456 889 467 883 b 503 904 489 883 500 890 b 483 947 506 917 494 939 b 419 963 465 960 443 963 b 46 367 149 963 46 583 b 310 -4 46 207 117 -4 b 660 315 494 -4 613 153 z "},"Ó":{"ha":731,"x_min":0,"x_max":0,"o":"m 315 1047 b 346 1072 322 1050 340 1068 b 411 1115 365 1089 386 1108 b 461 1125 428 1121 449 1114 b 444 1171 479 1140 468 1171 b 288 1090 371 1171 338 1140 b 315 1047 268 1071 289 1038 z m 660 315 b 688 557 682 393 693 476 b 503 815 682 671 639 815 b 307 714 431 815 354 764 b 289 694 304 711 290 697 b 313 653 278 676 292 653 b 374 693 328 653 361 685 b 501 750 408 718 457 750 b 547 740 517 750 533 747 b 633 511 618 699 633 585 b 322 67 631 336 533 67 b 149 258 213 67 164 164 b 171 604 128 372 139 494 b 367 882 203 711 261 833 b 444 903 390 893 418 899 b 453 901 447 903 451 904 b 476 883 456 889 467 883 b 503 904 489 883 500 890 b 483 947 506 917 494 939 b 419 963 465 960 443 963 b 46 367 149 963 46 583 b 310 -4 46 207 117 -4 b 660 315 494 -4 613 153 z "},"Ô":{"ha":731,"x_min":0,"x_max":0,"o":"m 332 1036 b 375 1088 343 1040 367 1076 b 424 1142 389 1107 404 1126 b 488 1050 433 1131 479 1063 b 508 1039 493 1042 500 1039 b 532 1079 525 1039 543 1058 b 432 1196 514 1111 467 1188 b 401 1190 422 1199 410 1194 b 303 1076 378 1176 318 1099 b 332 1036 288 1056 307 1028 z m 660 315 b 688 557 682 393 693 476 b 503 815 682 671 639 815 b 307 714 431 815 354 764 b 289 694 304 711 290 697 b 313 653 278 676 292 653 b 374 693 328 653 361 685 b 501 750 408 718 457 750 b 547 740 517 750 533 747 b 633 511 618 699 633 585 b 322 67 631 336 533 67 b 149 258 213 67 164 164 b 171 604 128 372 139 494 b 367 882 203 711 261 833 b 444 903 390 893 418 899 b 453 901 447 903 451 904 b 476 883 456 889 467 883 b 503 904 489 883 500 890 b 483 947 506 917 494 939 b 419 963 465 960 443 963 b 46 367 149 963 46 583 b 310 -4 46 207 117 -4 b 660 315 494 -4 613 153 z "},"Õ":{"ha":731,"x_min":0,"x_max":0,"o":"m 461 1085 b 510 1125 481 1093 499 1108 b 511 1178 521 1140 526 1165 b 494 1183 506 1182 500 1183 b 469 1161 483 1183 471 1175 b 436 1136 469 1153 446 1138 b 401 1160 425 1136 408 1153 b 349 1203 385 1176 369 1194 b 332 1206 343 1204 338 1206 b 256 1154 301 1206 271 1181 b 247 1125 253 1150 247 1131 b 272 1100 247 1110 260 1100 b 297 1117 282 1100 292 1106 b 329 1149 300 1125 321 1143 b 417 1083 360 1129 382 1094 b 461 1085 431 1079 447 1081 z m 660 315 b 688 557 682 393 693 476 b 503 815 682 671 639 815 b 307 714 431 815 354 764 b 289 694 304 711 290 697 b 313 653 278 676 292 653 b 374 693 328 653 361 685 b 501 750 408 718 457 750 b 547 740 517 750 533 747 b 633 511 618 699 633 585 b 322 67 631 336 533 67 b 149 258 213 67 164 164 b 171 604 128 372 139 494 b 367 882 203 711 261 833 b 444 903 390 893 418 899 b 453 901 447 903 451 904 b 476 883 456 889 467 883 b 503 904 489 883 500 890 b 483 947 506 917 494 939 b 419 963 465 960 443 963 b 46 367 149 963 46 583 b 310 -4 46 207 117 -4 b 660 315 494 -4 613 153 z "},"Ö":{"ha":731,"x_min":0,"x_max":0,"o":"m 510 1113 b 479 1146 514 1135 499 1146 b 439 1121 464 1146 447 1138 b 469 1076 431 1100 449 1076 b 510 1113 489 1076 510 1092 z m 283 1088 b 267 1136 304 1104 289 1136 b 221 1125 257 1136 226 1129 b 236 1074 203 1108 213 1078 b 283 1088 249 1072 275 1081 z m 660 315 b 688 557 682 393 693 476 b 503 815 682 671 639 815 b 307 714 431 815 354 764 b 289 694 304 711 290 697 b 313 653 278 676 292 653 b 374 693 328 653 361 685 b 501 750 408 718 457 750 b 547 740 517 750 533 747 b 633 511 618 699 633 585 b 322 67 631 336 533 67 b 149 258 213 67 164 164 b 171 604 128 372 139 494 b 367 882 203 711 261 833 b 444 903 390 893 418 899 b 453 901 447 903 451 904 b 476 883 456 889 467 883 b 503 904 489 883 500 890 b 483 947 506 917 494 939 b 419 963 465 960 443 963 b 46 367 149 963 46 583 b 310 -4 46 207 117 -4 b 660 315 494 -4 613 153 z "},"×":{"ha":560,"x_min":0,"x_max":0,"o":"m 507 246 b 433 357 507 274 453 336 b 274 525 382 415 326 468 b 432 672 322 578 374 631 b 503 718 456 689 479 703 b 493 767 528 735 515 767 b 353 679 474 767 372 693 b 232 569 310 646 269 608 b 108 724 189 618 146 668 b 101 739 107 726 101 735 b 117 774 103 743 115 768 b 90 803 119 792 106 803 b 68 790 82 803 74 800 b 53 714 56 768 42 738 b 189 525 67 679 165 553 b 81 394 150 483 114 440 b 75 346 71 381 68 360 b 101 332 82 336 92 332 b 128 346 111 332 122 336 b 131 354 128 347 131 353 b 232 476 143 371 218 461 b 440 254 299 401 369 328 b 457 232 447 247 451 240 b 479 218 463 222 471 218 b 507 246 493 218 507 229 z "},"Ø":{"ha":776,"x_min":0,"x_max":0,"o":"m 25 -100 b 156 86 69 -39 111 24 b 336 -4 203 26 260 -4 b 688 315 524 -4 639 151 b 714 581 711 401 721 492 b 654 756 707 642 690 706 b 729 894 672 782 729 863 b 689 932 728 914 710 932 b 672 888 665 932 656 904 b 610 796 656 856 632 826 b 531 817 586 810 558 817 b 335 714 458 817 382 764 b 317 694 332 711 318 697 b 340 653 306 676 319 653 b 401 693 354 653 389 685 b 529 750 435 718 485 750 b 569 743 542 750 557 747 b 185 221 440 569 308 397 b 167 371 171 269 167 321 b 288 792 165 517 201 674 b 472 903 338 860 390 890 b 481 901 475 903 479 904 b 504 883 483 889 494 883 b 531 904 515 883 528 890 b 511 947 533 917 522 939 b 447 963 493 960 471 963 b 146 719 299 963 203 844 b 74 367 97 610 72 488 b 125 136 74 288 90 207 b -18 -71 76 67 29 -1 b 4 -111 -31 -90 -14 -111 b 25 -100 13 -111 19 -108 z m 208 160 b 614 703 339 344 478 522 b 660 551 646 660 656 604 b 593 242 667 446 643 335 b 350 68 544 147 463 68 b 208 160 285 68 238 100 z "},"Ù":{"ha":696,"x_min":0,"x_max":0,"o":"m 357 1074 b 265 1114 329 1092 299 1106 b 210 1125 247 1118 229 1121 b 181 1129 200 1126 190 1131 b 176 1079 154 1124 151 1088 b 254 1061 186 1075 243 1064 b 331 1028 281 1054 306 1042 b 344 1025 335 1025 340 1025 b 357 1074 368 1025 383 1058 z m 618 378 b 636 664 633 472 638 568 b 596 1013 636 708 631 985 b 579 1018 590 1017 585 1018 b 554 986 564 1018 549 1004 b 576 828 568 935 572 881 b 540 294 586 650 588 467 b 357 69 518 221 453 69 b 253 144 314 69 274 110 b 168 429 200 228 181 331 b 154 810 153 556 150 683 b 146 932 156 833 157 913 b 115 950 139 944 126 950 b 83 932 103 950 90 944 b 61 811 72 914 63 833 b 126 236 46 619 61 417 b 356 7 161 139 236 7 b 618 378 518 7 596 247 z "},"Ú":{"ha":696,"x_min":0,"x_max":0,"o":"m 326 1046 b 401 1115 336 1056 393 1103 b 382 1161 418 1135 403 1161 b 367 1156 378 1161 372 1160 b 292 1086 357 1147 301 1094 b 308 1039 271 1067 288 1039 b 326 1046 314 1039 321 1040 z m 618 378 b 636 664 633 472 638 568 b 596 1013 636 708 631 985 b 579 1018 590 1017 585 1018 b 554 986 564 1018 549 1004 b 576 828 568 935 572 881 b 540 294 586 650 588 467 b 357 69 518 221 453 69 b 253 144 314 69 274 110 b 168 429 200 228 181 331 b 154 810 153 556 150 683 b 146 932 156 833 157 913 b 115 950 139 944 126 950 b 83 932 103 950 90 944 b 61 811 72 914 63 833 b 126 236 46 619 61 417 b 356 7 161 139 236 7 b 618 378 518 7 596 247 z "},"Û":{"ha":696,"x_min":0,"x_max":0,"o":"m 461 1022 b 449 1032 458 1026 451 1028 b 388 1132 438 1044 400 1121 b 364 1140 381 1138 372 1140 b 340 1133 357 1140 349 1138 b 214 1019 315 1117 229 1046 b 238 981 203 1000 219 981 b 257 990 244 981 251 983 b 358 1082 286 1025 321 1054 b 403 1006 372 1056 386 1029 b 442 979 411 994 426 979 b 461 1022 461 979 478 1003 z m 618 378 b 636 664 633 472 638 568 b 596 1013 636 708 631 985 b 579 1018 590 1017 585 1018 b 554 986 564 1018 549 1004 b 576 828 568 935 572 881 b 540 294 586 650 588 467 b 357 69 518 221 453 69 b 253 144 314 69 274 110 b 168 429 200 228 181 331 b 154 810 153 556 150 683 b 146 932 156 833 157 913 b 115 950 139 944 126 950 b 83 932 103 950 90 944 b 61 811 72 914 63 833 b 126 236 46 619 61 417 b 356 7 161 139 236 7 b 618 378 518 7 596 247 z "},"Ü":{"ha":696,"x_min":0,"x_max":0,"o":"m 396 1006 b 419 1053 417 1014 429 1033 b 393 1088 425 1074 408 1088 b 369 1068 383 1088 374 1082 b 363 1026 365 1054 360 1040 b 396 1006 365 1010 382 1000 z m 225 1015 b 240 1025 231 1018 235 1022 b 251 1028 242 1026 250 1026 b 256 1074 272 1035 274 1063 b 240 1078 251 1076 246 1078 b 197 1057 224 1078 207 1068 b 225 1015 181 1036 201 1007 z m 618 378 b 636 664 633 472 638 568 b 596 1013 636 708 631 985 b 579 1018 590 1017 585 1018 b 554 986 564 1018 549 1004 b 576 828 568 935 572 881 b 540 294 586 650 588 467 b 357 69 518 221 453 69 b 253 144 314 69 274 110 b 168 429 200 228 181 331 b 154 810 153 556 150 683 b 146 932 156 833 157 913 b 115 950 139 944 126 950 b 83 932 103 950 90 944 b 61 811 72 914 63 833 b 126 236 46 619 61 417 b 356 7 161 139 236 7 b 618 378 518 7 596 247 z "},"Ý":{"ha":692,"x_min":0,"x_max":0,"o":"m 357 986 b 368 1001 358 988 367 1000 b 422 1051 382 1022 401 1039 b 410 1100 446 1065 438 1100 b 313 1006 383 1100 318 1031 b 338 976 310 989 324 976 b 357 986 344 976 351 979 z m 417 -4 b 413 46 414 13 414 29 b 400 285 410 125 408 206 b 388 371 397 314 392 342 b 504 493 435 394 476 450 b 674 897 583 617 642 756 b 674 958 679 918 685 942 b 649 974 668 969 658 974 b 624 938 632 974 615 958 b 408 468 593 789 508 588 b 351 428 396 453 371 428 b 278 513 325 428 289 490 b 63 932 246 575 108 879 b 46 944 60 935 50 943 b 32 949 42 947 38 949 b 10 911 15 949 1 929 b 11 903 10 910 11 904 b 24 879 13 900 22 882 b 190 524 81 761 131 640 b 318 368 217 468 258 393 b 340 97 317 331 336 135 b 350 25 343 74 346 49 b 390 -36 353 4 363 -36 b 417 -4 406 -36 421 -24 z "},"Þ":{"ha":544,"x_min":0,"x_max":0,"o":"m 215 -42 b 206 -19 214 -33 208 -26 b 176 235 188 19 178 193 b 518 515 313 286 463 374 b 525 604 528 543 533 576 b 354 696 507 672 429 696 b 167 656 290 696 225 678 b 169 910 167 688 168 878 b 176 957 192 915 196 946 b 150 963 169 961 160 963 b 118 950 138 963 125 958 b 94 829 101 932 96 854 b 83 607 89 756 86 682 b 83 575 78 596 78 586 b 90 276 82 475 83 376 b 78 279 86 278 82 279 b 57 233 56 279 40 253 b 96 215 65 222 81 217 b 132 -10 101 140 108 63 b 188 -75 139 -29 164 -75 b 215 -42 204 -75 218 -60 z m 167 592 b 338 628 221 613 279 628 b 453 594 371 628 433 622 b 453 539 464 579 458 557 b 174 303 411 425 279 347 b 167 592 169 399 168 494 z "},"ß":{"ha":692,"x_min":0,"x_max":0,"o":"m 144 -178 b 107 206 143 -128 110 157 b 121 465 100 292 101 381 b 439 818 154 610 269 818 b 567 754 490 818 542 797 b 579 692 578 736 585 713 b 413 576 568 647 457 585 b 342 544 388 569 358 565 b 368 453 315 514 332 469 b 438 415 392 442 417 432 b 428 189 519 356 519 232 b 367 171 408 179 388 174 b 360 176 364 171 363 175 b 338 188 354 185 346 188 b 308 147 319 188 300 168 b 393 96 325 110 351 96 b 568 214 472 96 539 142 b 583 335 582 251 588 294 b 489 500 576 399 539 461 b 663 676 561 532 649 592 b 647 771 668 708 661 742 b 457 883 611 842 535 883 b 81 528 268 883 136 686 b 40 107 36 394 33 247 b 86 -200 44 14 56 -112 b 117 -221 92 -214 104 -221 b 144 -178 142 -221 144 -197 z "},"à":{"ha":413,"x_min":0,"x_max":0,"o":"m 247 769 b 200 840 228 790 208 814 b 175 858 196 853 185 858 b 149 833 161 858 149 850 b 163 796 149 826 158 803 b 229 726 171 779 207 726 b 247 769 249 726 263 751 z m 201 276 b 292 447 236 331 264 389 b 313 271 290 388 296 328 b 367 231 321 246 342 222 b 382 274 383 238 390 257 b 374 339 381 294 376 317 b 368 575 365 417 368 496 b 363 622 368 590 371 608 b 335 638 357 632 346 638 b 308 625 325 638 315 633 b 292 593 304 621 294 599 b 229 640 278 621 264 640 b 143 590 197 640 164 618 b 28 325 94 526 47 403 b 28 232 21 294 17 261 b 92 190 39 204 64 190 b 201 276 142 190 178 238 z m 93 256 b 115 371 83 279 107 347 b 158 471 129 404 142 439 b 231 574 171 497 204 565 b 249 550 242 578 246 561 b 260 517 253 539 254 526 b 151 306 228 444 194 371 b 115 264 140 292 129 276 b 93 256 110 260 100 253 z "},"á":{"ha":414,"x_min":0,"x_max":0,"o":"m 229 749 b 317 856 247 760 301 838 b 288 896 333 875 313 904 b 182 776 275 892 185 796 b 211 743 179 757 193 743 b 229 749 217 743 224 744 z m 201 276 b 292 447 236 331 264 389 b 313 271 290 388 296 328 b 367 231 321 246 342 222 b 382 274 383 238 390 257 b 374 339 381 294 376 317 b 368 575 365 417 368 496 b 363 622 368 590 371 608 b 335 638 357 632 346 638 b 308 625 325 638 315 633 b 292 593 304 621 294 599 b 229 640 278 621 264 640 b 143 590 197 640 164 618 b 28 325 94 526 47 403 b 28 232 21 294 17 261 b 92 190 39 204 64 190 b 201 276 142 190 178 238 z m 93 256 b 115 371 83 279 107 347 b 158 471 129 404 142 439 b 231 574 171 497 204 565 b 249 550 242 578 246 561 b 260 517 253 539 254 526 b 151 306 228 444 194 371 b 115 264 140 292 129 276 b 93 256 110 260 100 253 z "},"â":{"ha":414,"x_min":0,"x_max":0,"o":"m 154 724 b 168 732 158 726 164 729 b 233 793 193 749 211 774 b 301 718 242 774 276 718 b 319 763 321 718 336 743 b 290 800 310 775 299 786 b 264 843 282 814 276 832 b 239 853 257 850 249 853 b 186 822 219 853 199 835 b 142 778 171 807 158 790 b 117 760 133 772 124 768 b 138 718 101 742 118 718 b 154 724 143 718 149 719 z m 201 276 b 292 447 236 331 264 389 b 313 271 290 388 296 328 b 367 231 321 246 342 222 b 382 274 383 238 390 257 b 374 339 381 294 376 317 b 368 575 365 417 368 496 b 363 622 368 590 371 608 b 335 638 357 632 346 638 b 308 625 325 638 315 633 b 292 593 304 621 294 599 b 229 640 278 621 264 640 b 143 590 197 640 164 618 b 28 325 94 526 47 403 b 28 232 21 294 17 261 b 92 190 39 204 64 190 b 201 276 142 190 178 238 z m 93 256 b 115 371 83 279 107 347 b 158 471 129 404 142 439 b 231 574 171 497 204 565 b 249 550 242 578 246 561 b 260 517 253 539 254 526 b 151 306 228 444 194 371 b 115 264 140 292 129 276 b 93 256 110 260 100 253 z "},"ã":{"ha":417,"x_min":0,"x_max":0,"o":"m 343 747 b 367 808 357 764 363 788 b 340 839 369 828 354 839 b 317 821 329 839 319 833 b 308 792 314 811 313 801 b 297 779 307 788 303 779 b 263 838 281 779 274 824 b 221 853 253 850 238 856 b 135 803 203 850 143 818 b 157 764 124 783 139 764 b 174 769 163 764 168 765 b 225 799 179 775 217 794 b 257 742 232 779 240 756 b 297 728 269 733 283 728 b 343 747 314 728 331 735 z m 201 276 b 292 447 236 331 264 389 b 313 271 290 388 296 328 b 367 231 321 246 342 222 b 382 274 383 238 390 257 b 374 339 381 294 376 317 b 368 575 365 417 368 496 b 363 622 368 590 371 608 b 335 638 357 632 346 638 b 308 625 325 638 315 633 b 292 593 304 621 294 599 b 229 640 278 621 264 640 b 143 590 197 640 164 618 b 28 325 94 526 47 403 b 28 232 21 294 17 261 b 92 190 39 204 64 190 b 201 276 142 190 178 238 z m 93 256 b 115 371 83 279 107 347 b 158 471 129 404 142 439 b 231 574 171 497 204 565 b 249 550 242 578 246 561 b 260 517 253 539 254 526 b 151 306 228 444 194 371 b 115 264 140 292 129 276 b 93 256 110 260 100 253 z "},"ä":{"ha":415,"x_min":0,"x_max":0,"o":"m 374 754 b 349 785 378 771 364 785 b 308 756 335 785 314 765 b 333 714 296 735 314 714 b 374 754 346 714 372 743 z m 201 749 b 178 764 196 760 188 764 b 164 761 174 764 169 764 b 153 714 144 754 140 729 b 192 699 160 706 182 699 b 201 749 221 699 226 733 z m 201 276 b 292 447 236 331 264 389 b 313 271 290 388 296 328 b 367 231 321 246 342 222 b 382 274 383 238 390 257 b 374 339 381 294 376 317 b 368 575 365 417 368 496 b 363 622 368 590 371 608 b 335 638 357 632 346 638 b 308 625 325 638 315 633 b 292 593 304 621 294 599 b 229 640 278 621 264 640 b 143 590 197 640 164 618 b 28 325 94 526 47 403 b 28 232 21 294 17 261 b 92 190 39 204 64 190 b 201 276 142 190 178 238 z m 93 256 b 115 371 83 279 107 347 b 158 471 129 404 142 439 b 231 574 171 497 204 565 b 249 550 242 578 246 561 b 260 517 253 539 254 526 b 151 306 228 444 194 371 b 115 264 140 292 129 276 b 93 256 110 260 100 253 z "},"å":{"ha":417,"x_min":0,"x_max":0,"o":"m 310 721 b 296 817 318 751 314 789 b 253 864 283 833 269 850 b 238 869 247 868 242 869 b 217 828 218 869 201 846 b 256 783 229 813 246 800 b 247 710 267 763 264 725 b 219 700 240 703 231 700 b 188 711 208 700 196 704 b 183 753 178 718 181 742 b 207 782 186 765 199 772 b 179 824 225 803 204 832 b 160 808 171 821 165 814 b 132 710 135 786 125 743 b 217 649 140 669 176 649 b 310 721 264 649 297 675 z m 203 276 b 293 447 238 331 265 389 b 314 271 292 388 297 328 b 368 231 322 246 343 222 b 383 274 385 238 392 257 b 375 339 382 294 378 317 b 369 575 367 417 369 496 b 364 622 369 590 372 608 b 336 638 358 632 347 638 b 310 625 326 638 317 633 b 293 593 306 621 296 599 b 231 640 279 621 265 640 b 144 590 199 640 165 618 b 29 325 96 526 49 403 b 29 232 22 294 18 261 b 93 190 40 204 65 190 b 203 276 143 190 179 238 z m 94 256 b 117 371 85 279 108 347 b 160 471 131 404 143 439 b 232 574 172 497 206 565 b 250 550 243 578 247 561 b 261 517 254 539 256 526 b 153 306 229 444 196 371 b 117 264 142 292 131 276 b 94 256 111 260 101 253 z "},"æ":{"ha":592,"x_min":0,"x_max":0,"o":"m 188 260 b 261 390 215 301 239 346 b 478 246 274 283 385 246 b 557 263 504 246 533 249 b 544 313 582 276 571 313 b 529 310 539 313 533 311 b 496 306 521 307 508 306 b 361 342 450 306 388 322 b 329 396 344 354 333 375 b 394 385 350 389 372 385 b 482 406 425 385 456 392 b 538 468 506 419 529 442 b 457 606 558 528 519 590 b 435 608 450 607 442 608 b 367 590 411 608 388 601 b 365 607 365 590 365 604 b 331 638 364 625 347 638 b 313 633 324 638 318 636 b 289 594 300 625 294 608 b 225 640 278 619 253 640 b 22 308 113 640 40 390 b 19 256 18 292 17 274 b 89 189 22 217 54 189 b 188 260 133 189 164 226 z m 92 254 b 88 272 86 256 86 265 b 182 524 88 336 150 474 b 229 575 190 536 214 571 b 242 563 235 576 239 568 b 257 515 244 557 254 521 b 146 304 225 443 192 369 b 121 274 143 299 125 276 b 92 254 115 267 100 253 z m 335 450 b 433 546 349 490 386 546 b 483 490 465 546 493 522 b 386 440 474 456 418 440 b 335 450 369 440 351 444 z "},"ç":{"ha":335,"x_min":0,"x_max":0,"o":"m 236 61 b 246 176 268 93 279 146 b 192 194 232 189 211 194 b 154 189 178 194 165 192 b 169 232 156 194 167 226 b 301 293 210 238 268 269 b 274 339 325 313 301 351 b 178 299 242 324 211 308 b 156 296 171 297 164 296 b 104 338 129 296 113 314 b 104 454 90 374 93 417 b 189 585 115 488 157 569 b 197 585 190 586 196 586 b 235 547 203 581 229 551 b 253 539 240 542 247 539 b 271 583 272 539 289 565 b 229 629 256 599 246 617 b 183 646 214 642 199 646 b 44 496 126 646 74 567 b 32 336 25 447 18 389 b 113 236 44 289 67 254 b 94 163 104 213 94 188 b 128 128 94 143 108 128 b 163 138 140 128 151 133 b 193 140 174 140 183 140 b 211 135 199 140 208 139 b 204 106 217 128 210 114 b 121 36 182 78 150 58 b 136 -11 99 19 114 -11 b 236 61 156 -11 221 47 z "},"è":{"ha":349,"x_min":0,"x_max":0,"o":"m 192 731 b 135 756 182 736 140 744 b 113 769 129 765 121 769 b 86 743 99 769 86 760 b 101 711 86 736 96 717 b 179 678 115 694 158 678 b 192 731 204 678 217 717 z m 315 271 b 303 321 340 285 331 321 b 288 318 297 321 292 319 b 254 314 279 315 267 314 b 119 350 208 314 146 331 b 88 404 103 363 92 383 b 153 393 108 397 131 393 b 240 414 183 393 214 400 b 192 617 349 472 299 617 b 67 546 139 617 97 586 b 96 286 -1 463 0 336 b 238 253 139 264 189 253 b 315 271 265 253 293 257 z m 93 458 b 192 554 107 499 144 554 b 242 499 224 554 251 531 b 144 449 232 464 176 449 b 93 458 128 449 110 453 z "},"é":{"ha":349,"x_min":0,"x_max":0,"o":"m 176 740 b 260 792 204 758 232 775 b 246 840 285 806 272 840 b 143 779 226 840 154 793 b 163 736 128 760 143 736 b 176 740 167 736 172 738 z m 314 271 b 301 321 339 285 329 321 b 286 318 296 321 290 319 b 253 314 278 315 265 314 b 118 350 207 314 144 331 b 86 404 101 363 90 383 b 151 393 107 397 129 393 b 239 414 182 393 213 400 b 190 617 347 472 297 617 b 65 546 138 617 96 586 b 94 286 -3 463 -1 336 b 236 253 138 264 188 253 b 314 271 264 253 292 257 z m 92 458 b 190 554 106 499 143 554 b 240 499 222 554 250 531 b 143 449 231 464 175 449 b 92 458 126 449 108 453 z "},"ê":{"ha":358,"x_min":0,"x_max":0,"o":"m 163 686 b 233 756 186 710 204 740 b 290 701 242 749 283 708 b 307 696 296 697 301 696 b 326 739 328 696 344 721 b 244 810 311 754 265 804 b 171 775 218 815 190 793 b 114 714 150 756 133 733 b 131 669 97 697 110 669 b 163 686 142 669 156 679 z m 315 271 b 303 321 340 285 331 321 b 288 318 297 321 292 319 b 254 314 279 315 267 314 b 119 350 208 314 146 331 b 88 404 103 363 92 383 b 153 393 108 397 131 393 b 240 414 183 393 214 400 b 192 617 349 472 299 617 b 67 546 139 617 97 586 b 96 286 -1 463 0 336 b 238 253 139 264 189 253 b 315 271 265 253 293 257 z m 93 458 b 192 554 107 499 144 554 b 242 499 224 554 251 531 b 144 449 232 464 176 449 b 93 458 128 449 110 453 z "},"ë":{"ha":350,"x_min":0,"x_max":0,"o":"m 190 719 l 190 726 b 165 757 193 742 182 757 b 128 713 139 757 114 735 b 164 689 133 703 153 689 b 190 719 179 689 193 703 z m 314 271 b 301 321 339 285 329 321 b 286 318 296 321 290 319 b 253 314 278 315 265 314 b 118 350 207 314 144 331 b 86 404 101 363 90 383 b 151 393 107 397 129 393 b 239 414 182 393 213 400 b 190 617 347 472 297 617 b 65 546 138 617 96 586 b 94 286 -3 463 -1 336 b 236 253 138 264 188 253 b 314 271 264 253 292 257 z m 300 700 b 308 703 301 700 307 703 b 304 753 333 713 329 749 b 301 754 303 753 301 754 b 264 731 285 760 267 747 b 300 700 260 710 281 693 z m 92 458 b 190 554 106 499 143 554 b 240 499 222 554 250 531 b 143 449 231 464 175 449 b 92 458 126 449 108 453 z "},"ì":{"ha":196,"x_min":0,"x_max":0,"o":"m 151 769 b 68 801 122 778 92 785 b 44 815 63 811 54 815 b 21 801 36 815 26 811 b 74 735 4 771 42 746 b 138 718 94 726 115 722 b 151 769 171 710 185 761 z m 167 296 b 151 426 164 339 154 383 b 142 603 150 449 144 581 b 144 618 142 604 144 615 b 119 643 144 633 132 643 b 103 638 114 643 108 642 b 81 565 83 622 83 590 b 82 349 78 531 74 383 b 119 272 88 331 103 285 b 138 265 125 268 132 265 b 167 296 153 265 168 278 z "},"í":{"ha":190,"x_min":0,"x_max":0,"o":"m 64 743 b 151 807 93 765 118 792 b 131 854 181 821 161 865 b 25 774 117 850 33 790 b 46 736 14 756 29 736 b 64 743 53 736 58 739 z m 153 296 b 138 426 150 339 140 383 b 128 603 136 449 129 581 b 131 618 128 604 131 615 b 106 643 131 633 118 643 b 89 638 100 643 94 642 b 67 565 69 622 69 590 b 68 349 64 531 60 383 b 106 272 74 331 89 285 b 124 265 111 268 118 265 b 153 296 139 265 154 278 z "},"î":{"ha":275,"x_min":0,"x_max":0,"o":"m 60 685 b 153 776 76 694 139 764 b 217 711 175 756 194 732 b 233 704 221 706 228 704 b 260 736 247 704 263 718 b 175 828 257 751 193 818 b 136 831 164 833 149 836 b 49 749 115 824 63 765 b 15 725 32 754 15 742 b 47 682 15 703 19 682 b 60 685 51 682 56 683 z m 190 296 b 175 426 188 339 179 383 b 167 603 174 449 168 581 b 169 618 167 604 169 615 b 143 643 169 633 157 643 b 126 638 138 643 132 642 b 106 565 107 622 108 590 b 107 349 101 531 97 383 b 131 289 113 328 119 307 b 143 272 135 283 139 276 b 161 265 149 268 156 265 b 190 296 176 265 192 278 z "},"ï":{"ha":253,"x_min":0,"x_max":0,"o":"m 53 729 b 82 739 63 732 74 732 b 71 785 99 753 92 778 b 49 792 64 790 56 793 b 32 783 42 790 38 786 b 53 729 -1 768 15 724 z m 203 729 b 232 743 208 731 228 739 b 215 788 251 758 240 788 b 174 772 206 788 181 781 b 203 729 156 751 178 719 z m 169 296 b 154 426 167 339 157 383 b 146 603 153 449 147 581 b 149 618 146 604 149 615 b 122 643 149 633 136 643 b 106 638 117 643 111 642 b 83 565 86 622 86 590 b 86 349 81 531 76 383 b 122 272 92 329 106 285 b 140 265 128 268 135 265 b 169 296 156 265 171 278 z "},"ð":{"ha":432,"x_min":0,"x_max":0,"o":"m 401 372 b 400 454 404 400 404 428 b 250 756 383 565 318 667 b 311 792 258 761 303 786 b 292 844 333 810 319 844 b 208 804 275 844 224 814 b 74 876 179 833 118 876 b 56 874 67 876 61 875 b 69 819 21 861 35 807 b 79 818 72 821 78 818 b 157 769 108 810 135 790 b 31 665 138 756 46 685 b 53 607 13 644 25 611 b 82 638 71 603 85 619 b 199 722 97 649 183 713 b 326 449 253 654 315 535 b 313 343 331 414 328 375 b 199 269 294 304 243 269 b 154 310 172 269 158 282 b 164 406 149 342 154 375 b 243 547 181 457 203 511 b 264 567 246 550 261 564 b 242 606 274 586 260 606 b 224 599 236 606 229 604 b 86 349 144 536 101 447 b 101 246 81 315 85 276 b 215 185 125 208 171 185 b 401 372 314 185 392 271 z "},"ñ":{"ha":536,"x_min":0,"x_max":0,"o":"m 226 757 b 267 806 231 767 260 797 b 279 815 269 808 275 817 b 354 775 304 803 325 776 b 401 872 396 775 401 828 b 375 899 401 889 388 899 b 350 878 364 899 353 892 b 346 835 349 872 347 840 b 288 871 328 849 310 865 b 240 857 272 874 253 868 b 174 767 222 842 178 790 b 199 738 169 747 183 738 b 226 757 210 738 222 743 z m 90 239 b 110 269 100 246 104 258 b 219 460 143 335 176 400 b 272 518 235 482 251 503 b 292 526 276 522 286 528 b 343 463 310 522 333 479 b 410 343 365 424 385 381 b 469 263 428 315 447 288 b 490 251 475 256 483 251 b 518 290 508 251 526 269 b 293 604 488 371 397 604 b 260 597 282 604 271 601 b 186 532 229 583 206 558 b 101 390 154 488 128 439 b 106 554 103 444 106 499 b 99 590 106 565 104 579 b 76 603 93 599 85 603 b 44 571 60 603 49 586 b 29 378 40 544 31 404 b 38 242 26 347 18 265 b 65 229 44 233 54 229 b 90 239 74 229 83 232 z "},"ò":{"ha":356,"x_min":0,"x_max":0,"o":"m 197 808 b 93 839 183 811 107 833 b 75 790 60 851 42 804 b 190 757 88 785 179 757 b 197 808 217 757 225 800 z m 335 488 b 313 581 340 519 332 556 b 243 622 296 603 269 615 b 181 658 226 646 211 658 b 21 393 93 658 31 461 b 31 314 18 367 18 339 b 93 275 42 290 67 275 b 335 488 178 275 321 399 z m 93 342 b 89 357 90 344 89 353 b 104 436 88 383 96 410 b 161 572 118 483 136 529 b 239 558 186 567 214 567 b 269 492 265 549 278 518 b 138 354 256 442 181 376 b 93 342 128 349 104 336 z "},"ó":{"ha":358,"x_min":0,"x_max":0,"o":"m 200 739 b 279 786 213 746 265 782 b 308 799 289 789 301 790 b 285 840 324 817 308 844 b 171 781 242 833 206 806 b 186 733 149 765 165 733 b 200 739 190 733 196 735 z m 333 488 b 311 581 339 519 331 556 b 242 622 294 603 268 615 b 179 658 225 646 210 658 b 19 393 92 658 29 461 b 29 314 17 367 17 339 b 92 275 40 290 65 275 b 333 488 176 275 319 399 z m 92 342 b 88 357 89 344 88 353 b 103 436 86 383 94 410 b 160 572 117 483 135 529 b 238 558 185 567 213 567 b 268 492 264 549 276 518 b 136 354 254 442 179 376 b 92 342 126 349 103 336 z "},"ô":{"ha":365,"x_min":0,"x_max":0,"o":"m 147 717 b 233 828 161 735 214 815 b 290 757 244 819 281 768 b 310 746 296 749 303 746 b 333 786 328 746 344 765 b 232 882 318 814 269 882 b 217 879 226 882 222 881 b 107 753 185 869 126 781 b 103 747 107 751 104 749 b 115 700 79 735 89 700 b 147 717 128 700 140 707 z m 336 488 b 314 581 342 519 333 556 b 244 622 297 603 271 615 b 182 658 228 646 213 658 b 22 393 94 658 32 461 b 32 314 19 367 19 339 b 94 275 43 290 68 275 b 336 488 179 275 322 399 z m 94 342 b 90 357 92 344 90 353 b 106 436 89 383 97 410 b 163 572 119 483 138 529 b 240 558 188 567 215 567 b 271 492 267 549 279 518 b 139 354 257 442 182 376 b 94 342 129 349 106 336 z "},"õ":{"ha":363,"x_min":0,"x_max":0,"o":"m 333 790 b 308 825 339 808 325 825 b 290 815 303 825 296 822 b 275 792 283 808 283 796 b 247 785 268 788 257 785 b 222 792 238 785 228 788 b 189 851 204 806 203 833 b 161 865 182 860 172 865 b 140 857 154 865 147 863 b 89 788 118 839 104 811 b 111 747 76 768 92 747 b 126 753 117 747 121 749 b 157 796 132 758 153 789 b 247 733 174 754 200 733 b 333 790 288 733 322 750 z m 336 488 b 314 581 342 519 333 556 b 244 622 297 603 271 615 b 182 658 228 646 213 658 b 22 393 94 658 32 461 b 32 314 19 367 19 339 b 94 275 43 290 68 275 b 336 488 179 275 322 399 z m 94 342 b 90 357 92 344 90 353 b 106 436 89 383 97 410 b 163 572 119 483 138 529 b 240 558 188 567 215 567 b 271 492 267 549 279 518 b 139 354 257 442 182 376 b 94 342 129 349 106 336 z "},"ö":{"ha":357,"x_min":0,"x_max":0,"o":"m 136 735 b 144 783 160 740 165 771 b 124 793 138 788 131 793 b 94 756 106 793 90 774 b 136 735 97 738 118 732 z m 308 757 b 276 779 301 769 289 779 b 261 774 271 779 267 778 b 272 721 244 760 253 732 b 286 717 276 718 282 717 b 308 757 304 717 319 738 z m 333 488 b 311 581 339 519 331 556 b 242 622 294 603 268 615 b 179 658 225 646 210 658 b 19 393 92 658 29 461 b 29 314 17 367 17 339 b 92 275 40 290 65 275 b 333 488 176 275 319 399 z m 92 342 b 88 357 89 344 88 353 b 103 436 86 383 94 410 b 160 572 117 483 135 529 b 238 558 185 567 213 567 b 268 492 264 549 276 518 b 136 354 254 442 179 376 b 92 342 126 349 103 336 z "},"÷":{"ha":601,"x_min":0,"x_max":0,"o":"m 378 763 b 368 813 404 775 397 811 b 343 811 364 813 347 810 b 318 815 336 817 326 817 b 292 743 282 813 268 771 b 357 713 301 733 342 713 b 378 763 381 713 396 742 z m 557 463 b 565 522 588 472 594 511 b 464 529 550 528 481 529 b 79 539 335 531 207 526 b 51 553 74 547 61 556 b 25 535 44 553 29 540 b 32 492 14 522 17 501 b 232 461 63 472 194 463 b 467 454 310 457 388 451 b 557 463 497 454 528 454 z m 310 178 b 354 226 319 185 350 214 b 325 268 361 246 346 268 b 283 247 310 268 297 253 b 254 229 274 242 263 238 b 285 168 232 201 256 168 b 310 178 293 168 301 171 z "},"ø":{"ha":482,"x_min":0,"x_max":0,"o":"m 57 192 b 133 292 82 225 107 258 b 167 275 143 283 154 278 b 231 285 189 272 211 276 b 421 488 303 318 406 404 b 415 550 424 508 422 531 b 383 596 410 568 397 583 b 453 672 393 607 443 663 b 431 719 476 693 461 729 b 338 622 407 710 353 640 b 328 624 335 619 329 621 b 303 649 321 633 314 643 b 265 658 292 656 279 658 b 233 651 254 658 243 657 b 113 422 181 622 125 481 b 107 340 106 396 101 367 b 18 224 78 301 49 263 b 38 181 3 203 19 181 b 57 192 44 181 51 185 z m 246 572 b 290 567 260 569 275 568 b 194 450 257 528 225 489 b 246 572 208 492 225 535 z m 179 342 b 176 349 176 343 175 347 b 342 547 231 415 285 482 b 324 439 374 519 351 471 b 222 354 294 406 261 375 b 179 342 213 349 189 336 z "},"ù":{"ha":426,"x_min":0,"x_max":0,"o":"m 324 889 b 206 940 308 896 219 935 b 182 954 200 950 192 954 b 157 939 172 954 163 949 b 181 889 146 919 160 897 b 301 840 197 882 286 846 b 324 889 333 831 354 875 z m 393 299 b 385 353 417 313 411 349 b 378 358 379 354 381 353 b 353 496 356 399 353 449 b 368 683 354 558 363 621 b 363 703 369 690 367 697 b 338 715 356 711 347 715 b 304 690 324 715 310 706 b 238 481 285 619 264 549 b 161 360 231 461 189 360 b 143 372 156 360 147 368 b 110 443 128 393 118 418 b 99 624 90 500 90 564 b 103 635 100 628 103 631 b 103 649 104 639 103 644 b 106 667 103 654 106 661 b 75 700 108 686 92 700 b 58 696 69 700 64 699 b 25 568 31 679 26 601 b 89 339 19 489 43 404 b 156 299 104 318 128 299 b 282 432 221 299 260 382 b 363 294 288 379 310 300 b 393 299 374 294 385 294 z "},"ú":{"ha":428,"x_min":0,"x_max":0,"o":"m 143 807 b 207 864 164 826 185 844 b 225 879 210 867 222 876 b 233 881 226 881 232 881 b 229 931 258 890 256 926 b 197 926 218 933 208 928 b 139 881 182 925 150 892 b 104 844 135 876 108 849 b 124 799 85 825 103 799 b 143 807 131 799 138 801 z m 394 299 b 386 353 418 313 413 349 b 379 358 381 354 382 353 b 354 496 357 399 354 449 b 369 683 356 558 364 621 b 364 703 371 690 368 697 b 339 715 357 711 349 715 b 306 690 325 715 311 706 b 239 481 286 619 265 549 b 163 360 232 461 190 360 b 144 372 157 360 149 368 b 111 443 129 393 119 418 b 100 624 92 500 92 564 b 104 635 101 628 104 631 b 104 649 106 639 104 644 b 107 667 104 654 107 661 b 76 700 110 686 93 700 b 60 696 71 700 65 699 b 26 568 32 679 28 601 b 90 339 21 489 44 404 b 157 299 106 318 129 299 b 283 432 222 299 261 382 b 364 294 289 379 311 300 b 394 299 375 294 386 294 z "},"û":{"ha":429,"x_min":0,"x_max":0,"o":"m 121 763 b 197 825 147 782 169 807 b 221 836 203 828 215 838 b 239 813 228 835 235 817 b 279 786 249 799 264 786 b 293 790 285 786 289 788 b 289 839 313 801 310 831 b 271 864 283 840 274 858 b 222 892 260 879 242 892 b 171 872 204 892 185 882 b 86 800 157 863 97 814 b 106 758 71 781 86 758 b 121 763 111 758 115 760 z m 396 299 b 388 353 419 313 414 349 b 381 358 382 354 383 353 b 356 496 358 399 356 449 b 371 683 357 558 365 621 b 365 703 372 690 369 697 b 340 715 358 711 350 715 b 307 690 326 715 313 706 b 240 481 288 619 267 549 b 164 360 233 461 192 360 b 146 372 158 360 150 368 b 113 443 131 393 121 418 b 101 624 93 500 93 564 b 106 635 103 628 106 631 b 106 649 107 639 106 644 b 108 667 106 654 108 661 b 78 700 111 686 94 700 b 61 696 72 700 67 699 b 28 568 33 679 29 601 b 92 339 22 489 46 404 b 158 299 107 318 131 299 b 285 432 224 299 263 382 b 365 294 290 379 313 300 b 396 299 376 294 388 294 z "},"ü":{"ha":431,"x_min":0,"x_max":0,"o":"m 282 851 b 263 897 297 876 281 897 b 235 879 253 897 242 893 b 260 838 222 858 242 838 b 282 851 268 838 276 842 z m 111 840 b 113 846 110 842 111 843 b 88 881 119 867 104 881 b 64 865 78 881 69 876 b 60 858 63 863 61 860 b 72 806 47 840 51 813 b 83 804 76 804 79 804 b 111 840 103 804 118 821 z m 397 299 b 389 353 421 313 415 349 b 382 358 383 354 385 353 b 357 496 360 399 357 449 b 372 683 358 558 367 621 b 367 703 374 690 371 697 b 342 715 360 711 351 715 b 308 690 328 715 314 706 b 242 481 289 619 268 549 b 165 360 235 461 193 360 b 147 372 160 360 151 368 b 114 443 132 393 122 418 b 103 624 94 500 94 564 b 107 635 104 628 107 631 b 107 649 108 639 107 644 b 110 667 107 654 110 661 b 79 700 113 686 96 700 b 63 696 74 700 68 699 b 29 568 35 679 31 601 b 93 339 24 489 47 404 b 160 299 108 318 132 299 b 286 432 225 299 264 382 b 367 294 292 379 314 300 b 397 299 378 294 389 294 z "},"ý":{"ha":397,"x_min":0,"x_max":0,"o":"m 365 -124 b 338 114 342 -47 338 35 b 357 522 336 250 344 386 l 357 539 b 358 574 360 550 363 563 b 321 600 353 590 336 600 b 286 579 307 600 294 593 b 276 519 275 563 279 540 b 268 490 275 515 269 494 b 133 250 250 432 183 289 b 113 318 122 271 118 294 b 103 499 101 378 97 439 b 118 585 104 510 118 572 b 90 613 118 600 104 613 b 76 608 86 613 81 611 b 39 518 57 597 44 540 b 53 257 22 432 26 339 b 93 190 61 232 72 206 b 132 178 104 182 118 176 b 261 317 186 178 239 274 b 258 164 260 265 258 215 b 328 -165 258 85 267 -114 b 346 -172 333 -171 340 -172 b 365 -124 368 -172 386 -144 z m 197 715 b 242 783 207 722 235 774 b 254 793 246 786 250 789 b 239 839 275 810 260 839 b 225 835 233 839 229 838 b 160 749 193 818 178 781 b 181 708 149 729 163 708 b 197 715 186 708 192 711 z "},"þ":{"ha":489,"x_min":0,"x_max":0,"o":"m 163 -99 b 146 -50 157 -82 149 -67 b 135 56 138 -15 135 19 b 142 326 133 146 138 236 b 449 497 260 343 401 372 b 460 590 460 526 467 560 b 285 711 442 667 358 708 b 160 672 242 711 197 696 b 171 972 163 711 172 933 b 168 1038 171 994 168 1017 b 142 1064 168 1054 154 1064 b 122 1056 135 1064 128 1061 b 68 560 92 1018 71 619 b 61 72 60 397 53 235 b 110 -122 64 6 75 -65 b 135 -137 115 -133 125 -137 b 163 -99 153 -137 169 -121 z m 156 599 b 231 642 179 617 204 632 b 275 647 244 646 260 647 b 386 594 314 647 364 628 b 336 453 417 550 378 488 b 144 382 289 414 203 394 b 156 599 146 408 154 572 z "},"ÿ":{"ha":406,"x_min":0,"x_max":0,"o":"m 364 -124 b 336 114 340 -47 336 35 b 356 522 335 250 343 386 l 356 539 b 357 574 358 550 361 563 b 319 600 351 590 335 600 b 285 579 306 600 293 593 b 275 519 274 563 278 540 b 267 490 274 515 268 494 b 132 250 249 432 182 289 b 111 318 121 271 117 294 b 101 499 100 378 96 439 b 117 585 103 510 117 572 b 89 613 117 600 103 613 b 75 608 85 613 79 611 b 38 518 56 597 43 540 b 51 257 21 432 25 339 b 92 190 60 232 71 206 b 131 178 103 182 117 176 b 260 317 185 178 238 274 b 257 164 258 265 257 215 b 326 -165 257 85 265 -114 b 344 -172 332 -171 339 -172 b 364 -124 367 -172 385 -144 z m 169 707 b 175 729 174 714 176 722 b 150 750 174 742 161 750 b 113 708 131 750 115 724 b 142 676 110 690 124 676 b 169 707 158 676 169 690 z m 349 704 b 346 754 381 708 378 754 b 326 753 339 754 332 753 b 321 700 294 753 290 706 b 349 704 325 700 344 703 z "},"Ł":{"ha":688,"x_min":0,"x_max":0,"o":"m 343 -35 b 671 138 392 -15 626 110 b 657 189 696 154 683 189 b 503 124 633 189 529 138 b 233 4 456 99 288 3 b 213 15 224 4 218 7 b 204 364 172 76 196 292 b 439 560 236 388 410 535 b 422 607 461 578 444 607 b 404 600 417 607 410 606 b 215 446 342 549 279 497 b 256 738 229 543 244 640 b 264 860 261 778 264 819 b 267 878 264 867 267 872 b 235 918 267 896 256 918 b 204 886 215 918 208 901 b 176 736 194 836 185 786 b 115 367 156 613 128 490 b 46 319 106 360 57 325 l 40 319 b 40 267 7 319 7 272 b 43 267 42 267 42 267 b 108 296 61 267 97 286 b 129 31 104 207 104 115 b 233 -65 146 -22 174 -65 b 343 -35 272 -65 308 -50 z "},"ł":{"ha":258,"x_min":0,"x_max":0,"o":"m 192 65 b 163 203 167 106 164 156 b 163 421 160 275 161 349 b 215 481 169 428 210 472 b 196 524 229 497 218 524 b 164 503 183 524 172 513 b 171 713 165 572 168 642 b 182 911 172 736 181 886 b 175 946 182 917 178 940 b 151 963 171 957 161 963 b 126 946 142 963 132 957 b 114 924 121 940 117 932 b 97 818 110 908 99 833 b 76 410 82 683 75 546 b 43 378 71 404 50 382 b 61 331 18 364 32 325 b 78 338 64 331 78 339 b 92 158 79 278 81 217 b 133 44 99 118 107 75 b 154 25 136 42 150 28 b 168 21 160 22 164 21 b 192 65 189 21 204 44 z "},"Œ":{"ha":1057,"x_min":0,"x_max":0,"o":"m 585 340 b 718 122 585 251 606 122 b 939 257 799 122 893 194 b 1032 432 978 310 1006 371 b 1007 467 1040 451 1024 467 b 985 453 997 467 989 463 b 885 281 957 393 929 331 b 708 186 849 238 763 172 b 681 206 697 190 688 197 b 657 290 664 231 658 261 b 667 468 653 350 660 410 b 721 474 685 468 703 471 b 846 504 739 478 829 499 b 831 557 879 517 864 564 b 675 525 811 553 694 528 b 714 806 689 618 701 711 b 868 811 765 807 817 807 b 951 819 881 813 939 815 b 942 871 979 829 971 871 b 935 871 940 871 938 871 b 733 861 894 871 760 863 b 710 876 731 864 714 874 b 694 881 706 879 700 881 b 667 864 683 881 674 875 b 615 597 650 832 621 638 b 397 899 604 724 542 886 b 383 926 393 908 389 918 b 344 950 374 938 360 949 b 289 940 326 953 306 947 b 50 571 144 874 78 719 b 78 269 33 472 40 364 b 310 49 115 172 193 49 b 585 340 450 49 551 224 z m 135 343 b 163 679 111 453 121 574 b 307 867 194 761 235 817 b 335 833 306 847 319 833 b 356 843 342 833 350 836 b 556 550 510 843 556 676 b 496 271 557 454 538 357 b 311 108 464 204 394 108 b 135 343 215 108 150 263 z "},"œ":{"ha":599,"x_min":0,"x_max":0,"o":"m 97 250 b 279 365 163 257 238 318 b 490 254 311 281 408 254 b 568 271 517 254 546 258 b 556 321 592 285 582 321 b 539 318 550 321 544 319 b 507 314 531 315 519 314 b 340 404 449 314 350 333 b 404 393 360 397 382 393 b 493 414 436 393 467 400 b 444 617 601 472 551 617 b 318 546 393 617 347 586 b 240 599 301 572 271 590 b 178 635 224 622 208 635 b 18 369 90 635 28 438 b 28 290 15 343 15 315 b 97 250 40 264 68 249 z m 346 458 b 444 554 360 499 396 554 b 494 499 475 554 503 531 b 397 449 485 464 429 449 b 346 458 381 449 363 453 z m 90 318 b 86 333 88 321 86 329 b 101 413 85 360 93 386 b 158 549 115 460 133 506 b 236 535 183 543 211 543 b 267 468 263 525 275 494 b 135 331 253 418 178 353 b 90 318 125 325 101 313 z "},"Š":{"ha":793,"x_min":0,"x_max":0,"o":"m 379 1074 b 410 1183 392 1110 401 1146 b 385 1215 415 1203 399 1215 b 361 1197 374 1215 364 1210 b 326 1078 357 1179 335 1094 b 308 1057 322 1071 315 1058 b 286 1072 301 1057 290 1067 b 251 1128 271 1089 260 1108 b 246 1153 247 1136 249 1144 b 222 1169 242 1164 232 1169 b 196 1139 208 1169 193 1158 b 272 1017 199 1100 242 1038 b 310 1007 283 1010 296 1007 b 379 1074 346 1007 368 1042 z m 624 138 b 758 249 674 167 726 200 b 772 314 771 267 776 292 b 746 364 769 332 760 350 b 686 414 729 383 708 399 b 179 614 535 514 349 550 b 99 663 160 621 107 643 b 115 706 93 674 108 696 b 458 869 194 813 328 869 b 600 835 496 869 578 864 b 603 818 603 829 604 824 b 586 782 603 804 593 793 b 611 739 575 761 592 739 b 629 746 617 739 624 740 b 664 771 633 749 660 765 b 663 804 672 781 672 794 b 642 885 669 833 663 864 b 456 940 599 931 515 940 b 88 790 317 940 186 889 b 24 703 63 765 38 736 b 24 631 15 681 14 653 b 229 507 53 563 164 528 b 585 383 349 471 471 438 b 699 304 613 369 689 332 b 688 282 701 297 692 288 b 415 140 638 232 482 164 b 269 114 369 125 319 114 b 218 118 253 114 235 115 b 193 132 213 128 203 132 b 168 118 183 132 174 128 b 193 61 157 97 171 72 b 306 33 226 43 267 33 b 624 138 415 33 531 85 z "},"š":{"ha":303,"x_min":0,"x_max":0,"o":"m 179 799 b 201 835 190 807 197 821 b 222 951 206 853 222 933 b 197 976 222 968 210 976 b 171 954 185 976 174 969 b 149 847 165 918 161 881 b 97 908 132 858 97 888 b 71 933 97 924 85 933 b 49 921 63 933 54 929 b 90 824 31 890 65 847 b 138 792 104 811 119 797 b 179 799 150 788 168 789 z m 272 307 b 279 350 279 319 281 335 b 247 414 275 372 261 394 b 138 544 214 460 171 499 b 114 618 124 564 101 599 b 174 657 128 638 151 647 b 168 624 174 646 171 635 b 194 592 165 604 179 592 b 224 642 218 592 224 622 b 215 693 225 660 224 679 b 172 717 206 711 190 717 b 46 635 125 717 61 681 b 46 565 38 613 39 588 b 97 481 57 533 76 507 b 214 336 118 457 204 365 b 75 319 190 321 104 317 b 67 324 72 319 69 322 b 32 289 46 331 25 310 b 49 271 35 281 42 275 b 115 258 63 261 88 258 b 272 307 157 258 250 263 z "},"Ÿ":{"ha":692,"x_min":0,"x_max":0,"o":"m 467 1026 b 443 1072 488 1044 469 1079 b 428 1078 438 1076 433 1078 b 403 1035 410 1078 394 1056 b 433 1015 407 1021 419 1015 b 467 1026 444 1015 457 1019 z m 254 1072 b 240 1076 250 1075 244 1076 b 222 1029 218 1076 201 1046 b 253 1022 231 1022 243 1022 b 254 1072 288 1021 288 1067 z m 417 -4 b 413 46 414 13 414 29 b 400 285 410 125 408 206 b 388 371 397 314 392 342 b 504 493 435 394 476 450 b 674 897 583 617 642 756 b 674 958 679 918 685 942 b 649 974 668 969 658 974 b 624 938 632 974 615 958 b 408 468 593 789 508 588 b 351 428 396 453 371 428 b 278 513 325 428 289 490 b 63 932 246 575 108 879 b 46 944 60 935 50 943 b 32 949 42 947 38 949 b 10 911 15 949 1 929 b 11 903 10 910 11 904 b 24 879 13 900 22 882 b 190 524 81 761 131 640 b 318 368 217 468 258 393 b 340 97 317 331 336 135 b 350 25 343 74 346 49 b 390 -36 353 4 363 -36 b 417 -4 406 -36 421 -24 z "},"Ž":{"ha":681,"x_min":0,"x_max":0,"o":"m 364 1018 b 433 1172 399 1038 425 1132 b 436 1194 433 1175 436 1190 b 410 1219 436 1210 424 1219 b 389 1207 401 1219 393 1215 b 383 1182 385 1200 385 1190 b 343 1074 375 1144 363 1107 b 253 1158 331 1083 265 1149 b 236 1165 247 1163 242 1165 b 217 1122 218 1165 201 1140 b 336 1014 239 1096 303 1021 b 364 1018 346 1013 356 1014 z m 647 47 b 635 100 678 58 668 100 b 581 103 628 100 588 103 b 215 113 535 104 261 110 b 144 125 192 115 167 118 b 129 139 138 128 128 132 b 231 275 133 172 208 251 b 426 481 294 344 363 411 b 597 740 490 551 576 644 b 564 871 608 789 596 833 b 290 951 503 942 379 951 b 18 878 221 951 36 950 b 43 844 13 858 28 844 b 65 857 51 844 60 847 b 72 867 67 861 67 864 b 213 886 117 881 165 885 b 471 853 290 886 397 886 b 521 814 489 843 508 831 b 531 750 533 796 536 771 b 476 640 521 711 500 674 b 119 240 375 493 236 376 b 65 136 94 210 67 175 b 235 42 63 64 164 50 b 429 32 300 35 364 32 b 647 47 465 33 614 33 z "},"ž":{"ha":364,"x_min":0,"x_max":0,"o":"m 279 813 b 315 922 296 847 306 885 b 290 953 321 940 306 953 b 265 935 279 953 269 947 b 219 822 258 911 240 836 b 143 935 200 835 156 917 b 88 964 132 949 106 967 b 88 913 60 958 60 919 b 110 889 99 910 104 899 b 178 788 132 854 149 815 b 221 768 189 776 206 768 b 279 813 246 768 268 792 z m 314 303 b 314 360 346 308 346 354 b 288 367 311 361 292 365 b 232 371 269 369 250 371 b 118 367 194 371 156 367 b 260 503 163 415 214 456 b 293 633 296 540 329 597 b 201 669 269 657 233 665 b 89 674 164 674 126 674 b 60 682 82 682 71 686 b 31 661 49 678 36 672 b 49 619 21 644 31 625 b 189 596 67 613 169 600 b 229 586 203 594 217 592 b 181 529 217 565 199 547 b 31 374 156 504 44 406 b 22 336 25 363 21 349 b 51 297 25 319 36 304 b 121 285 72 286 97 285 b 314 303 149 285 288 299 z "},"ˇ":{"ha":349,"x_min":0,"x_max":0,"o":"m 257 579 b 311 661 294 588 307 626 b 308 753 314 692 311 722 b 283 776 307 768 294 776 b 257 749 269 776 256 767 b 247 633 257 725 261 653 b 154 718 226 640 169 701 b 64 803 139 733 85 794 b 39 758 38 813 17 776 b 257 579 90 715 190 568 z "},"˜":{"ha":349,"x_min":0,"x_max":0,"o":"m 321 731 b 296 754 321 746 308 754 b 272 739 288 754 276 750 b 221 721 257 729 239 722 b 186 733 208 719 196 725 b 136 783 169 749 156 771 b 100 792 126 790 113 794 b 56 765 82 789 67 778 b 26 724 49 758 29 733 b 53 693 24 707 38 693 b 69 699 58 693 64 694 b 107 740 78 707 96 740 b 129 718 114 740 125 724 b 215 669 153 692 178 669 b 321 731 249 669 321 693 z "},"ẞ":{"ha":754,"x_min":0,"x_max":0,"o":"m 114 -22 b 146 10 128 -17 138 -3 b 126 49 154 26 144 46 b 117 172 122 90 118 132 b 167 533 114 294 131 418 b 278 764 192 615 228 694 b 450 888 314 814 388 888 b 471 885 457 888 464 886 b 556 747 524 869 561 801 b 451 554 550 674 508 601 b 390 504 443 547 397 511 b 392 432 369 483 369 450 b 460 403 411 417 438 411 b 581 347 503 389 546 375 b 628 208 624 315 657 253 b 494 138 600 165 546 138 b 386 181 457 138 414 157 b 358 206 383 196 371 206 b 335 192 349 206 340 201 b 350 129 326 175 338 144 b 503 63 382 88 451 63 b 703 169 582 63 664 103 b 618 426 754 256 701 369 b 482 481 578 454 529 468 b 624 674 544 531 600 597 b 638 792 636 711 643 753 b 451 969 624 889 544 969 b 185 763 338 969 239 850 b 57 374 114 646 76 508 b 65 19 40 257 39 135 b 114 -22 71 -7 89 -31 z "},"‘":{"ha":136,"x_min":0,"x_max":0,"o":"m 93 847 b 92 871 90 851 90 867 b 104 893 93 875 101 890 b 82 933 118 914 100 933 b 63 925 75 933 68 932 b 36 892 54 914 42 904 b 35 835 28 875 28 853 b 54 806 39 824 44 813 b 68 801 58 803 64 801 b 93 847 89 801 104 825 z "},"’":{"ha":118,"x_min":0,"x_max":0,"o":"m 89 869 b 86 949 92 883 89 935 b 54 976 82 967 68 976 b 31 951 42 976 31 968 b 35 861 31 935 26 875 b 60 846 40 850 50 846 b 89 869 74 846 86 854 z "},"‚":{"ha":93,"x_min":0,"x_max":0,"o":"m 88 -99 b 57 -62 82 -92 58 -71 b 57 -53 56 -60 56 -56 b 36 -8 78 -36 63 -3 b 1 -49 18 -11 3 -31 b 19 -114 -3 -71 4 -99 b 53 -142 25 -119 47 -137 b 67 -146 57 -144 63 -146 b 88 -99 88 -146 104 -119 z "},"“":{"ha":292,"x_min":0,"x_max":0,"o":"m 78 894 b 82 950 82 901 81 942 b 99 988 86 963 99 974 b 72 1013 99 1003 86 1013 b 53 1004 65 1013 58 1010 b 24 924 35 983 21 953 b 29 899 25 921 28 903 b 54 882 33 888 43 882 b 78 894 63 882 72 886 z m 253 932 b 233 940 250 933 236 939 b 257 957 242 944 251 949 b 235 996 267 975 253 996 b 174 960 218 996 181 971 b 200 897 160 936 175 908 b 239 883 207 894 232 883 b 253 932 267 883 275 919 z "},"”":{"ha":283,"x_min":0,"x_max":0,"o":"m 75 917 b 79 943 76 919 79 940 b 94 967 81 953 88 960 b 108 979 99 971 106 974 b 82 1018 119 999 103 1022 b 31 967 63 1015 38 983 b 22 921 24 953 22 936 b 49 893 21 903 35 893 b 75 917 60 893 72 901 z m 219 933 b 238 943 214 940 229 943 b 235 994 269 947 267 994 b 185 894 179 994 142 931 b 201 888 190 890 196 888 b 219 933 221 888 236 913 z "},"„":{"ha":240,"x_min":0,"x_max":0,"o":"m 206 -108 b 211 -61 208 -101 210 -69 b 228 -14 213 -44 222 -31 b 203 21 235 6 219 21 b 181 7 194 21 186 17 b 156 -100 161 -24 150 -64 b 182 -121 158 -114 169 -121 b 206 -108 192 -121 200 -117 z m 53 -90 b 56 -61 54 -87 56 -65 b 57 -36 56 -56 54 -40 b 33 10 74 -15 56 10 b 15 3 28 10 21 8 b 1 -90 -3 -12 0 -67 b 28 -114 3 -106 15 -114 b 53 -90 39 -114 51 -106 z "},"‹":{"ha":361,"x_min":0,"x_max":0,"o":"m 311 367 b 204 394 296 375 221 390 b 110 428 185 399 124 414 b 111 436 108 429 111 435 b 164 507 122 464 144 486 b 253 615 196 542 226 576 b 267 618 254 618 263 618 b 267 669 294 624 294 664 b 226 668 258 671 233 671 b 40 447 193 657 50 504 b 49 397 38 431 40 411 b 208 328 72 353 163 335 b 288 315 219 326 276 318 b 311 367 321 306 342 350 z "},"›":{"ha":339,"x_min":0,"x_max":0,"o":"m 297 419 b 271 501 301 447 289 478 b 193 578 250 531 221 554 b 113 643 183 586 122 635 b 96 689 131 660 121 689 b 74 688 89 689 81 688 b 46 631 44 688 32 656 b 169 514 60 607 149 532 b 233 426 190 496 239 454 b 147 353 229 400 171 367 b 93 328 139 349 101 331 b 76 333 88 332 82 333 b 49 300 60 333 46 319 b 96 268 53 278 74 268 b 297 419 160 268 290 353 z "},"€":{"ha":876,"x_min":0,"x_max":0,"o":"m 771 79 b 844 179 799 110 821 146 b 821 221 858 199 840 221 b 801 210 814 221 807 218 b 549 44 739 121 664 44 b 289 214 442 44 338 121 b 258 319 272 246 263 283 b 475 364 331 332 404 346 b 565 388 488 367 553 383 b 560 446 593 399 590 440 b 556 446 558 446 557 446 b 513 442 543 446 518 443 b 256 388 425 429 340 407 b 269 501 257 425 263 464 b 556 544 314 507 514 528 b 556 599 581 554 581 589 b 450 590 538 604 469 593 b 285 569 396 583 340 578 b 486 814 313 671 361 814 b 586 786 522 814 558 803 b 649 749 597 779 636 751 b 672 792 672 744 688 772 b 643 811 669 794 647 808 b 460 894 586 861 536 894 b 172 551 281 894 207 696 b 106 543 150 549 128 544 b 78 550 97 550 88 553 b 60 540 75 549 63 542 b 57 492 40 531 38 503 b 93 486 64 488 78 486 b 161 492 118 486 149 490 b 153 364 154 449 151 406 b 67 347 142 361 79 347 b 67 292 29 346 29 292 b 160 303 79 292 147 301 b 533 -32 190 126 350 -32 b 771 79 629 -32 710 7 z "},"−":{"ha":763,"x_min":0,"x_max":0,"o":"m 314 440 b 714 471 447 443 581 460 b 710 529 749 474 744 528 b 281 508 654 529 336 511 b 65 503 210 506 138 504 b 36 493 60 503 40 496 b 53 443 10 479 24 438 b 79 442 57 444 75 442 b 314 440 157 439 236 439 z "}}}
